<svg width="21" height="21" viewBox="0 0 21 21" fill="none" xmlns="http://www.w3.org/2000/svg">
									<path d="M3.92285 10.1465C3.57767 10.1465 3.29785 10.4263 3.29785 10.7715C3.29785 11.1167 3.57767 11.3965 3.92285 11.3965L16.0441 11.3965L11.0047 15.9319C10.7482 16.1628 10.7274 16.558 10.9583 16.8146C11.1892 17.0712 11.5844 17.092 11.841 16.861L18.091 11.236C18.2227 11.1175 18.2979 10.9487 18.2979 10.7715C18.2979 10.5943 18.2227 10.4255 18.091 10.3069L11.841 4.68193C11.5844 4.45102 11.1892 4.47182 10.9583 4.72839C10.7274 4.98496 10.7482 5.38014 11.0047 5.61105L16.0441 10.1465L3.92285 10.1465Z" fill="#2563EB"></path>
								</svg>