<svg width="40" height="41" viewBox="0 0 40 41" fill="none" xmlns="http://www.w3.org/2000/svg">
<g clip-path="url(#clip0_1213_3978)">
<path d="M37.0573 8.20834C36.1679 8.20834 35.4473 7.48774 35.4473 6.59835C35.4473 5.70896 36.1679 4.98835 37.0573 4.98835C37.9467 4.98835 38.6673 5.70896 38.6673 6.59835C38.6673 7.48774 37.9467 8.20834 37.0573 8.20834ZM21.0548 35.734C20.1654 35.734 19.4448 35.0134 19.4448 34.124C19.4448 33.2346 20.1654 32.514 21.0548 32.514C21.9442 32.514 22.6648 33.2346 22.6648 34.124C22.6648 35.0134 21.9442 35.734 21.0548 35.734ZM37.0573 3.66401C35.4279 3.66401 34.11 4.98511 34.11 6.61133C34.11 6.95865 34.1976 7.28324 34.3077 7.59161L20.4799 31.287C19.1426 31.5672 18.1201 32.6958 18.1201 34.1175C18.1201 35.747 19.4412 37.0648 21.0674 37.0648C22.6937 37.0648 24.0148 35.7437 24.0148 34.1175C24.0148 33.7897 23.9271 33.4911 23.8297 33.1957L37.7224 9.40285C39.0176 9.09221 40.0011 7.98112 40.0011 6.59186C40.0011 4.96239 38.68 3.64453 37.0538 3.64453" fill="white"></path>
<path d="M25.0488 8.20834C24.1595 8.20834 23.4389 7.48774 23.4389 6.59835C23.4389 5.70896 24.1595 4.98835 25.0488 4.98835C25.9382 4.98835 26.6588 5.70896 26.6588 6.59835C26.6588 7.48774 25.9382 8.20834 25.0488 8.20834ZM9.04631 35.734C8.15692 35.734 7.43632 35.0134 7.43632 34.124C7.43632 33.2346 8.15692 32.514 9.04631 32.514C9.9357 32.514 10.6563 33.2346 10.6563 34.124C10.6563 35.0134 9.9357 35.734 9.04631 35.734ZM25.0488 3.66401C23.4194 3.66401 22.1015 4.98511 22.1015 6.61133C22.1015 6.95865 22.1892 7.28324 22.2992 7.59161L8.47145 31.287C7.13412 31.5672 6.1084 32.6958 6.1084 34.1175C6.1084 35.747 7.4295 37.0648 9.05572 37.0648C10.6852 37.0648 12.003 35.7437 12.003 34.1175C12.003 33.7897 11.9154 33.4911 11.818 33.1957L25.7107 9.40285C27.0058 9.09221 27.9894 7.98112 27.9894 6.59186C27.9894 4.96239 26.6683 3.64453 25.042 3.64453" fill="white"></path>
<path d="M2.97792 13.1426C3.86731 13.1426 4.58791 13.8632 4.58791 14.7526C4.58791 15.642 3.86731 16.3626 2.97792 16.3626C2.08853 16.3626 1.36792 15.642 1.36792 14.7526C1.36792 13.8632 2.08853 13.1426 2.97792 13.1426ZM2.97792 17.687C4.60739 17.687 5.92524 16.3659 5.92524 14.7396C5.92524 14.415 5.83663 14.1132 5.73892 13.8178C5.34941 12.646 4.27825 11.7891 2.97662 11.7891C2.76856 11.7891 2.58711 11.8663 2.3891 11.9082C1.05177 12.187 0.0292969 13.3169 0.0292969 14.7354C0.0292969 16.3649 1.3504 17.6827 2.97662 17.6827" fill="white"></path>
<path d="M1.35161 25.058C1.35161 24.1686 2.07222 23.448 2.96161 23.448C3.851 23.448 4.5716 24.1686 4.5716 25.058C4.5716 25.9474 3.851 26.668 2.96161 26.668C2.07222 26.668 1.35161 25.9474 1.35161 25.058ZM5.89595 25.058C5.89595 24.7302 5.80733 24.4315 5.70963 24.1361C5.32011 22.9644 4.24895 22.1074 2.94732 22.1074C2.73926 22.1074 2.55781 22.1847 2.35981 22.2252C1.02248 22.5054 0 23.634 0 25.0557C0 26.6819 1.3211 28.003 2.94732 28.003C4.57679 28.003 5.89465 26.6819 5.89465 25.0557" fill="white"></path>
</g>
<defs>
<clipPath id="clip0_1213_3978">
<rect width="40" height="40" fill="white" transform="translate(0 0.271484)"></rect>
</clipPath>
</defs>
</svg>