<svg width="24" height="25" viewBox="0 0 24 25" fill="none" xmlns="http://www.w3.org/2000/svg">
<g clip-path="url(#clip0_22_685)">
<path fill-rule="evenodd" clip-rule="evenodd" d="M11.9642 0.516388C5.34833 0.516388 0 5.90414 0 12.5695C0 17.8975 3.42686 22.4076 8.18082 24.0038C8.77518 24.1238 8.9929 23.7445 8.9929 23.4254C8.9929 23.1459 8.97331 22.1881 8.97331 21.1902C5.64514 21.9087 4.95208 19.7534 4.95208 19.7534C4.41722 18.3565 3.62473 17.9974 3.62473 17.9974C2.53543 17.2591 3.70408 17.2591 3.70408 17.2591C4.91241 17.3389 5.54645 18.4963 5.54645 18.4963C6.61592 20.3321 8.33927 19.8134 9.03257 19.494C9.13151 18.7157 9.44865 18.177 9.78539 17.8777C7.13094 17.5983 4.33812 16.5606 4.33812 11.9308C4.33812 10.6138 4.81322 9.53622 5.56604 8.69818C5.44727 8.39892 5.03118 7.16145 5.68506 5.5052C5.68506 5.5052 6.69527 5.18586 8.97306 6.74243C9.94827 6.47859 10.954 6.34437 11.9642 6.34324C12.9744 6.34324 14.0042 6.48308 14.9552 6.74243C17.2332 5.18586 18.2434 5.5052 18.2434 5.5052C18.8973 7.16145 18.481 8.39892 18.3622 8.69818C19.1349 9.53622 19.5904 10.6138 19.5904 11.9308C19.5904 16.5606 16.7976 17.5782 14.1233 17.8777C14.5592 18.2568 14.9353 18.9751 14.9353 20.1126C14.9353 21.729 14.9158 23.0262 14.9158 23.4251C14.9158 23.7445 15.1337 24.1238 15.7278 24.0041C20.4818 22.4073 23.9087 17.8975 23.9087 12.5695C23.9282 5.90414 18.5603 0.516388 11.9642 0.516388Z" fill="#B3B8D8"></path>
</g>
<defs>
<clipPath id="clip0_22_685">
<rect width="24" height="24" fill="white" transform="translate(0 0.271484)"></rect>
</clipPath>
</defs>
</svg>