<svg width="40" height="41" viewBox="0 0 40 41" fill="none" xmlns="http://www.w3.org/2000/svg">
<g clip-path="url(#clip0_1213_3974)">
<path d="M22.8872 0.271484C25.0434 5.36132 15.153 8.48169 14.2319 12.7242C13.3907 16.6201 20.091 21.1868 20.0992 21.1868C19.0755 19.5763 18.3308 18.2182 17.3092 15.7051C15.5777 11.4626 27.8581 7.63441 22.8872 0.271484ZM29.4255 7.33899C29.4255 7.33899 20.7762 7.88675 20.3372 13.5428C20.1403 16.06 22.6226 17.3833 22.6944 19.2153C22.756 20.7129 21.2029 21.9561 21.2029 21.9561C21.2029 21.9561 23.9869 21.4514 24.8588 19.166C25.8189 16.6324 22.9837 14.8989 23.2709 12.8679C23.5478 10.9271 29.4255 7.33899 29.4255 7.33899ZM31.5426 20.3703C30.6338 20.3292 29.6142 20.6636 28.7054 21.3324C30.4964 20.9344 32.0227 22.0587 32.0227 23.3511C32.0227 26.2479 27.8868 28.9764 27.8868 28.9764C27.8868 28.9764 34.2814 28.2625 34.2814 23.4948C34.2814 21.5294 33.0505 20.4421 31.5426 20.3703ZM14.5683 20.4175C12.3383 20.4954 7.88444 20.8626 7.88444 22.5818C7.88444 24.9739 18.259 25.1606 25.6753 23.6896C25.6753 23.6896 27.696 22.2823 28.2233 21.7653C23.3612 22.7747 12.2624 22.9306 12.2624 22.0525C12.2624 21.2483 15.8177 20.4175 15.8177 20.4175C15.8177 20.4175 15.313 20.3949 14.5683 20.4175ZM13.8954 24.8426C12.6748 24.8426 10.8653 25.7925 10.8653 26.7177C10.8653 28.5805 20.05 30.0104 26.8303 27.2921L24.4731 25.852C19.8756 27.3537 11.3843 26.8552 13.8954 24.8426ZM15.0484 29.0257C13.3846 29.0257 12.3096 30.076 12.3096 30.8515C12.3096 33.2374 22.2554 33.4734 26.2046 31.0444L23.7038 29.4093C20.7598 30.6771 13.3477 30.8659 15.0484 29.0257ZM9.47232 31.188C6.75405 31.1346 5 32.3676 5 33.3995C5 38.8997 32.8392 38.635 32.8392 33.0159C32.8392 32.0845 31.7396 31.6393 31.3498 31.4301C33.6208 36.803 8.60658 36.3824 8.60658 33.2087C8.60658 32.4866 10.4571 31.7665 12.1639 32.1009L10.7217 31.2844C10.3073 31.2237 9.89118 31.1915 9.47232 31.188ZM35.7729 34.891C31.5406 38.9838 20.8316 40.4506 10.0468 37.9211C20.8316 42.4283 35.7195 39.9213 35.7729 34.891Z" fill="#B3B8D8"></path>
</g>
<defs>
<clipPath id="clip0_1213_3974">
<rect width="40" height="40" fill="white" transform="translate(0 0.271484)"></rect>
</clipPath>
</defs>
</svg>