<svg width="24" height="25" viewBox="0 0 24 25" fill="none" xmlns="http://www.w3.org/2000/svg">
<g clip-path="url(#clip0_22_686)">
<path fill-rule="evenodd" clip-rule="evenodd" d="M21.0678 0.271484C22.6861 0.271484 24 1.58539 24 3.2037V21.3393C24 22.9576 22.6861 24.2715 21.0678 24.2715H2.93222C1.31391 24.2715 0 22.9576 0 21.3393V3.2037C0 1.58539 1.31386 0.271484 2.93222 0.271484L21.0678 0.271484ZM7.52161 20.1126V9.53216H4.00411V20.1126H7.52161ZM20.2031 20.1126V14.0452C20.2031 10.7952 18.4679 9.28334 16.154 9.28334C14.2882 9.28334 13.4524 10.3095 12.9845 11.0302V9.53216H9.46786C9.5145 10.525 9.46786 20.1126 9.46786 20.1126H12.9844V14.2038C12.9844 13.8875 13.0072 13.5713 13.1004 13.3453C13.3542 12.7136 13.9332 12.0593 14.9048 12.0593C16.1767 12.0593 16.6864 13.0299 16.6864 14.4516V20.1126H20.2031ZM5.78662 4.43033C4.58316 4.43033 3.79688 5.22153 3.79688 6.25855C3.79688 7.27377 4.55925 8.08677 5.74008 8.08677H5.76277C6.98925 8.08677 7.7527 7.27377 7.7527 6.25855C7.72997 5.22298 6.99141 4.43258 5.78662 4.43033Z" fill="#B3B8D8"></path>
</g>
<defs>
<clipPath id="clip0_22_686">
<rect width="24" height="24" fill="white" transform="translate(0 0.271484)"></rect>
</clipPath>
</defs>
</svg>