<svg width="164" height="40" viewBox="0 0 164 40" fill="none" xmlns="http://www.w3.org/2000/svg">
<path fill-rule="evenodd" clip-rule="evenodd" d="M5.8068 30.3142C3.93366 29.3776 2.62249 27.8791 1.4986 26.006C0.562033 24.1328 0 22.0724 0 20.0119C0 17.9515 0.562033 15.891 1.4986 14.0179C2.43517 12.1448 3.93366 10.8336 5.8068 9.70969C7.67994 8.58581 9.92769 8.02387 11.9881 8.02387C14.6105 7.83655 17.0457 8.77312 19.2934 10.0843L16.8583 13.8306C15.5471 12.7067 13.8613 12.1448 11.9881 12.1448C10.6769 12.1448 9.17848 12.5194 8.05459 13.2686C6.93071 13.8306 5.99409 14.9545 5.43215 16.2657C4.87021 17.3895 4.49558 18.8881 4.49558 20.1992C4.49558 21.5104 4.87021 22.8216 5.43215 24.1328C6.74335 26.5679 9.17843 28.0664 11.9881 28.0664C13.674 28.0664 15.3597 27.5045 16.8583 26.3806L19.2934 29.7522C17.233 31.2507 14.6105 32 11.9881 32C9.92769 32 7.67994 31.4381 5.8068 30.3142Z" fill="#3067DB"/>
<path fill-rule="evenodd" clip-rule="evenodd" d="M29.7829 12.5195V18.5135H38.0247V21.8851H29.7829V27.8792H39.7104V31.4381H25.1001V8.77319H39.5232V12.5195H29.7829Z" fill="#3067DB"/>
<path fill-rule="evenodd" clip-rule="evenodd" d="M50.7621 19.0754H53.3844C54.6956 19.0754 55.8195 18.7008 56.5687 18.1389C57.318 17.5769 57.6927 16.6404 57.6927 15.7038C57.6927 14.7672 57.318 13.8307 56.5687 13.2687C55.8195 12.7068 54.6956 12.3322 53.3844 12.3322H50.9493L50.7621 19.0754ZM52.2605 22.2598H50.9493V31.4381H46.4539V8.77319H54.5083C55.8195 8.77319 57.1307 8.96051 58.4419 9.52245C59.5658 10.0844 60.6897 10.8336 61.439 11.9575C62.1882 13.0814 62.5628 14.3926 62.5628 15.7038C62.7501 17.2023 62.1882 18.7008 61.0643 19.8247C59.9404 20.9486 58.6292 21.6978 57.1307 22.0725L64.6232 31.6254H59.1912L52.2605 22.2598Z" fill="#3067DB"/>
<path fill-rule="evenodd" clip-rule="evenodd" d="M68.9316 31.4381H73.4271V8.77319H68.9316V31.4381Z" fill="#3067DB"/>
<path fill-rule="evenodd" clip-rule="evenodd" d="M94.0315 25.8188C95.3427 24.5076 96.092 22.6344 96.092 20.1994C96.092 17.7643 95.3427 16.0785 94.0315 14.58C92.7203 13.2688 90.6598 12.5195 88.0374 12.5195H85.6024V27.8792H88.0374C90.6598 27.8792 92.533 27.13 94.0315 25.8188ZM94.968 10.4591C96.6539 11.3956 98.1524 12.7068 99.089 14.3926C100.026 16.0785 100.587 18.1389 100.4 20.1994C100.4 22.2598 100.026 24.3203 99.089 26.0061C98.1524 27.6919 96.6539 29.1904 94.968 30.127C92.9076 31.0635 90.6598 31.6255 88.4121 31.6255H81.1069V8.96054H88.4121C90.6598 8.77323 93.0949 9.33517 94.968 10.4591Z" fill="#3067DB"/>
<path fill-rule="evenodd" clip-rule="evenodd" d="M106.582 31.4381H111.077V8.77319H106.582V31.4381Z" fill="#3067DB"/>
<path fill-rule="evenodd" clip-rule="evenodd" d="M130.558 22.8217L127.186 13.456L123.814 22.8217H130.558ZM131.869 26.3807H122.69L120.817 31.6254H115.947L124.938 8.77319H129.434L138.425 31.4381H133.555L131.869 26.3807Z" fill="#3067DB"/>
<path fill-rule="evenodd" clip-rule="evenodd" d="M163.338 8.77319V31.4381H159.217L148.165 15.8911V31.4381H143.857V8.77319H147.978L159.029 24.5075V8.77319H163.338Z" fill="#3067DB"/>
</svg>
