<svg width="200" height="40" viewBox="0 0 200 40" fill="none" xmlns="http://www.w3.org/2000/svg">
<g clip-path="url(#clip0_835_6855)">
<path d="M199.654 24.1288C199.654 18.3547 195.716 14.99 190.526 14.99C189.277 14.9449 188.031 15.1589 186.869 15.6186C185.706 16.0784 184.652 16.7738 183.771 17.6613C182.891 18.5487 182.204 19.6088 181.753 20.7749C181.302 21.941 181.098 23.1877 181.153 24.4366C181.099 25.6902 181.303 26.9416 181.753 28.1131C182.202 29.2846 182.887 30.3513 183.766 31.247C184.645 32.1427 185.699 32.8483 186.861 33.32C188.024 33.7917 189.271 34.0195 190.526 33.9893C192.437 34.0151 194.322 33.5394 195.992 32.6095C196.85 32.1198 197.602 31.4639 198.203 30.6802C198.805 29.8965 199.244 29.0008 199.495 28.0454H195.684C194.75 29.7224 193.084 30.5397 190.727 30.5397C187.543 30.5397 185.176 28.0454 185.176 25.6678H199.612C199.654 24.9885 199.654 24.564 199.654 24.1288ZM185.134 22.3138C185.392 21.138 186.063 20.0936 187.025 19.3694C187.987 18.6452 189.176 18.2891 190.377 18.3653C193.105 18.3653 195.345 19.9999 195.684 22.3138H185.187H185.134Z" fill="#0F66FF"/>
<path d="M14.8049 26.8248C14.2731 27.9584 13.3689 28.8756 12.243 29.4236C11.117 29.9715 9.83734 30.117 8.61709 29.836C7.39684 29.555 6.30974 28.8643 5.53691 27.8791C4.76408 26.8939 4.35219 25.6736 4.36986 24.4216C4.38754 23.1695 4.83372 21.9613 5.63405 20.9983C6.43439 20.0353 7.54056 19.3756 8.76825 19.1291C9.99595 18.8827 11.271 19.0643 12.3811 19.6438C13.4911 20.2233 14.369 21.1656 14.8686 22.3138H19.1143C18.5626 20.043 17.1976 18.0533 15.2776 16.7211C13.3577 15.3888 11.016 14.8065 8.69567 15.0844C6.37534 15.3622 4.23735 16.4809 2.68625 18.2288C1.13516 19.9767 0.278564 22.2325 0.278564 24.5693C0.278564 26.9062 1.13516 29.1619 2.68625 30.9098C4.23735 32.6577 6.37534 33.7764 8.69567 34.0542C11.016 34.3321 13.3577 33.7498 15.2776 32.4176C17.1976 31.0853 18.5626 29.0956 19.1143 26.8248H14.8686H14.8049Z" fill="#0F66FF"/>
<path d="M34.2398 15.7968C33.0453 15.2369 31.7375 14.9608 30.4187 14.9901C29.0511 15.0047 27.7169 15.4138 26.5763 16.1683V15.6376H22.6702V33.3525H26.5975V24.8613C26.5378 23.7058 26.6198 22.5473 26.8416 21.4117V21.3268C26.9569 20.9493 27.1456 20.5984 27.397 20.2942C27.6484 19.99 27.9574 19.7385 28.3064 19.5542C28.9406 19.1498 29.6771 18.935 30.4293 18.935C31.1814 18.935 31.918 19.1498 32.5522 19.5542L34.2398 15.7968Z" fill="#0F66FF"/>
<path d="M49.0681 15.6377V24.129C49.1278 25.2845 49.0458 26.443 48.824 27.5786V27.6635C48.5938 28.4181 48.075 29.0513 47.3804 29.4254C46.7462 29.8298 46.0097 30.0446 45.2576 30.0446C44.5054 30.0446 43.7689 29.8298 43.1347 29.4254C42.4401 29.0513 41.9213 28.4181 41.6911 27.6635V27.5786C41.4693 26.443 41.3873 25.2845 41.447 24.129V15.6377H37.5303V25.2965C37.4386 26.8788 37.666 28.4634 38.199 29.9561C38.8065 31.3909 39.9485 32.5329 41.3833 33.1403C42.5778 33.7002 43.8856 33.9763 45.2045 33.947C46.572 33.9325 47.9063 33.5234 49.0469 32.7689V33.3526H52.9211V15.6377H49.0681Z" fill="#0F66FF"/>
<path d="M61.6779 33.3525V24.8612C61.6244 23.7013 61.7135 22.5392 61.9433 21.401V21.3161C62.1735 20.5615 62.6923 19.9282 63.3869 19.5541C64.0211 19.1497 64.7576 18.9349 65.5097 18.9349C66.2619 18.9349 66.9984 19.1497 67.6326 19.5541C68.3272 19.9282 68.846 20.5615 69.0762 21.3161V21.401C69.2917 22.5409 69.3666 23.703 69.2991 24.8612V33.3525H73.1945V23.6936C73.2964 22.1134 73.0798 20.5289 72.5577 19.034C71.9502 17.5993 70.8082 16.4573 69.3734 15.8498C68.1789 15.2899 66.8711 15.0138 65.5522 15.0431C64.1847 15.0577 62.8504 15.4668 61.7098 16.2213V15.6906H57.7825V33.3525H61.6779Z" fill="#0F66FF"/>
<path d="M91.2707 26.8248C90.7389 27.9584 89.8348 28.8756 88.7088 29.4236C87.5829 29.9715 86.3032 30.117 85.0829 29.836C83.8627 29.555 82.7756 28.8643 82.0027 27.8791C81.2299 26.8939 80.818 25.6736 80.8357 24.4216C80.8534 23.1695 81.2995 21.9613 82.0999 20.9983C82.9002 20.0353 84.0064 19.3756 85.2341 19.1291C86.4618 18.8827 87.7368 19.0643 88.8469 19.6438C89.9569 20.2233 90.8348 21.1656 91.3344 22.3138H95.5802C95.0284 20.043 93.6634 18.0533 91.7435 16.7211C89.8235 15.3888 87.4818 14.8065 85.1615 15.0844C82.8412 15.3622 80.7032 16.4809 79.1521 18.2288C77.601 19.9767 76.7444 22.2325 76.7444 24.5693C76.7444 26.9062 77.601 29.1619 79.1521 30.9098C80.7032 32.6577 82.8412 33.7764 85.1615 34.0542C87.4818 34.3321 89.8235 33.7498 91.7435 32.4176C93.6634 31.0853 95.0284 29.0956 95.5802 26.8248H91.3344H91.2707Z" fill="#0F66FF"/>
<path d="M103.063 33.3525V24.8613C103.004 23.7057 103.086 22.5473 103.308 21.4117V21.3268C103.423 20.9493 103.612 20.5984 103.863 20.2942C104.114 19.99 104.423 19.7385 104.772 19.5542C105.407 19.1498 106.143 18.935 106.895 18.935C107.647 18.935 108.384 19.1498 109.018 19.5542C109.713 19.9283 110.231 20.5616 110.462 21.3162V21.4011C110.683 22.5367 110.765 23.6951 110.706 24.8506V33.3419H114.601V23.6831C114.693 22.1008 114.466 20.5162 113.933 19.0235C113.325 17.5888 112.183 16.4467 110.748 15.8393C109.554 15.2794 108.246 15.0033 106.927 15.0326C105.56 15.0471 104.225 15.4562 103.085 16.2108V6H99.168V33.3525H103.063Z" fill="#0F66FF"/>
<path d="M128.644 14.9901H127.944C126.268 15.1125 124.656 15.6805 123.273 16.6353V6H119.399V33.3525H123.294V32.3548C124.527 33.2222 125.948 33.7855 127.441 33.9985C128.933 34.2116 130.455 34.0684 131.881 33.5807C133.308 33.0929 134.599 32.2745 135.648 31.1923C136.698 30.1101 137.477 28.7949 137.92 27.3542C138.364 25.9134 138.461 24.3881 138.202 22.9029C137.944 21.4177 137.337 20.0148 136.432 18.8089C135.528 17.603 134.35 16.6283 132.997 15.9646C131.643 15.3009 130.151 14.967 128.644 14.9901ZM134.121 25.2221V25.392C134.086 25.6178 134.036 25.8411 133.972 26.0607C133.9 26.2964 133.811 26.5269 133.707 26.7506V26.8355C133.341 27.5963 132.805 28.2628 132.141 28.7837C131.477 29.3045 130.701 29.6657 129.875 29.8393L129.355 29.9242H129.238C129.04 29.9351 128.842 29.9351 128.644 29.9242C128.395 29.9234 128.147 29.9056 127.901 29.8711H127.731C127.251 29.7926 126.783 29.6498 126.341 29.4466H126.235C125.789 29.2275 125.374 28.949 125.003 28.6187C124.63 28.2789 124.305 27.8896 124.037 27.4617C123.905 27.2437 123.788 27.0167 123.687 26.7824C123.375 26.0696 123.219 25.2982 123.23 24.52C123.241 23.7419 123.418 22.9751 123.751 22.2714C124.154 21.4192 124.771 20.6853 125.54 20.1406C126.31 19.5958 127.207 19.2586 128.145 19.1615C128.333 19.1518 128.52 19.1518 128.708 19.1615C130.123 19.1801 131.477 19.7448 132.485 20.7377C133.494 21.7306 134.08 23.0749 134.121 24.4898C134.137 24.7336 134.137 24.9783 134.121 25.2221Z" fill="#0F66FF"/>
<path d="M178.001 20.9341V20.8492C178.001 17.9621 175.783 15.022 170.836 14.969C165.89 14.9159 163.746 17.8772 163.682 20.7218V20.9341C163.788 22.6005 164.744 24.7233 168.437 25.5937L171.728 26.3367C172.577 26.5277 174.021 27.0054 174.137 28.088C174.137 29.5846 172.216 30.37 170.836 30.37C169.244 30.37 167.535 29.4891 167.535 28.0774V27.9925H163.682V28.0455C163.682 30.9326 165.901 33.8727 170.847 33.9258C175.793 33.9788 178.012 30.9432 178.012 28.0455V27.9925C177.927 26.3048 177.014 24.1502 173.256 23.2798L169.966 22.5368C169.244 22.3776 167.556 21.8894 167.556 20.8173C167.556 19.1403 169.265 18.5459 170.857 18.5459C172.45 18.5459 174.159 19.4269 174.159 20.8386V20.9341H178.012H178.001Z" fill="#0F66FF"/>
<path d="M141.339 24.4896C141.355 26.212 141.836 27.898 142.732 29.3692C143.628 30.8404 144.904 32.0421 146.427 32.847C147.95 33.6519 149.662 34.0301 151.382 33.9416C153.103 33.853 154.767 33.3011 156.199 32.3441V33.3524H160.094V15.6375H156.22V16.6989C154.838 15.7441 153.225 15.1761 151.55 15.0537H150.849C148.343 15.0647 145.942 16.06 144.163 17.8251C142.384 19.5902 141.369 21.9837 141.339 24.4896ZM145.362 24.4896C145.365 23.038 145.942 21.6465 146.969 20.62C147.996 19.5935 149.387 19.0156 150.839 19.0128C151.026 19.003 151.214 19.003 151.401 19.0128C152.339 19.1099 153.236 19.4471 154.006 19.9919C154.776 20.5366 155.392 21.2705 155.796 22.1227C156.128 22.8264 156.306 23.5931 156.317 24.3713C156.328 25.1494 156.172 25.9209 155.859 26.6337C155.759 26.868 155.641 27.095 155.509 27.313C155.241 27.7409 154.916 28.1302 154.543 28.4699C154.172 28.8003 153.758 29.0788 153.312 29.2978H153.206C152.763 29.5011 152.296 29.6439 151.815 29.7224H151.645C151.399 29.7569 151.151 29.7747 150.902 29.7755C150.704 29.7864 150.506 29.7864 150.308 29.7755H150.234L149.714 29.6906C148.905 29.5075 148.148 29.1442 147.499 28.6277C146.85 28.1113 146.327 27.4551 145.967 26.708V26.6231C145.863 26.3994 145.774 26.1689 145.701 25.9332C145.638 25.7136 145.588 25.4903 145.553 25.2645V25.0947C145.477 24.8969 145.414 24.6948 145.362 24.4896Z" fill="#0F66FF"/>
</g>
<defs>
<clipPath id="clip0_835_6855">
<rect width="199.317" height="28" fill="white" transform="translate(0.337402 6)"/>
</clipPath>
</defs>
</svg>
