<svg width="40" height="41" viewBox="0 0 40 41" fill="none" xmlns="http://www.w3.org/2000/svg">
<path d="M18.325 35.7642C18.7104 35.9892 19.1479 36.1059 19.5896 36.1059V36.0996C20.0334 36.0996 20.4709 35.9829 20.8584 35.7559L32.9021 28.7038C33.6813 28.2454 34.1667 27.3913 34.1667 26.4788V12.3829C34.1667 11.4663 33.6813 10.6121 32.9021 10.1579L20.8584 3.09961C20.1 2.66211 19.0875 2.66211 18.325 3.09961L6.26252 10.1538C5.87632 10.3823 5.55661 10.7079 5.33514 11.0982C5.11367 11.4886 4.99814 11.93 5.00002 12.3788V26.4746C5.00002 27.3892 5.48336 28.2454 6.26461 28.7038L9.42502 30.5496C10.9563 31.3142 11.5063 31.3142 12.2021 31.3142C14.4667 31.3142 15.7688 29.9225 15.7688 27.5017V13.585C15.7696 13.539 15.7613 13.4932 15.7443 13.4504C15.7273 13.4076 15.702 13.3686 15.6698 13.3357C15.6377 13.3028 15.5993 13.2765 15.5569 13.2585C15.5145 13.2405 15.469 13.2311 15.4229 13.2309H13.8979C13.8515 13.2303 13.8054 13.2391 13.7624 13.2567C13.7194 13.2744 13.6804 13.3005 13.6477 13.3336C13.615 13.3666 13.5893 13.4059 13.5722 13.4491C13.5551 13.4923 13.5468 13.5386 13.5479 13.585V27.4954C13.5479 28.5725 12.4521 29.6413 10.6604 28.735L7.36044 26.8017C7.30323 26.7684 7.25579 26.7207 7.22288 26.6633C7.18997 26.6059 7.17274 26.5408 7.17294 26.4746V12.3788C7.17294 12.2454 7.24794 12.1142 7.36461 12.0454L19.4063 5.00378C19.4625 4.97082 19.5265 4.95344 19.5917 4.95344C19.6569 4.95344 19.7209 4.97082 19.7771 5.00378L31.8209 12.0454C31.9354 12.1163 32.0084 12.2413 32.0084 12.3829V26.4788C32.0081 26.5449 31.9909 26.6099 31.9585 26.6675C31.926 26.7251 31.8794 26.7735 31.8229 26.8079L19.775 33.8579C19.7172 33.8882 19.6528 33.9041 19.5875 33.9041C19.5222 33.9041 19.4579 33.8882 19.4 33.8579L16.3125 31.9996C16.2209 31.9454 16.1021 31.9267 16.0125 31.9788C15.1584 32.4704 14.9938 32.535 14.1938 32.8184C13.9959 32.8892 13.7021 33.0079 14.3021 33.3496L18.325 35.7642Z" fill="#B3B8D8"></path>
<path d="M16.9336 21.8858C16.9336 23.9441 18.0378 26.3962 23.3107 26.3962L23.294 26.4108C27.1107 26.4108 29.3003 24.8858 29.3003 22.2233C29.3003 19.5858 27.542 18.8837 23.8399 18.3858C20.1003 17.8837 19.719 17.6233 19.719 16.7337C19.719 16.0004 20.042 15.0212 22.8149 15.0212C25.2899 15.0212 26.2003 15.5629 26.5774 17.2546C26.594 17.3319 26.6364 17.4014 26.6978 17.4514C26.7592 17.5014 26.8357 17.5289 26.9149 17.5296H28.4815C28.5304 17.5289 28.5785 17.5181 28.623 17.4981C28.6675 17.478 28.7074 17.449 28.7402 17.4128C28.773 17.3767 28.7981 17.3342 28.8138 17.288C28.8295 17.2418 28.8355 17.1928 28.8315 17.1441C28.5899 14.2275 26.6774 12.8691 22.819 12.8691C19.3857 12.8691 17.3336 14.3379 17.3336 16.8004C17.3336 19.4775 19.3732 20.2129 22.6732 20.5441C26.617 20.9358 26.9232 21.5191 26.9232 22.3046C26.9232 23.6691 25.844 24.2504 23.3065 24.2504C20.119 24.2504 19.417 23.44 19.1815 21.8337C19.1696 21.7512 19.1287 21.6757 19.0661 21.6207C19.0034 21.5657 18.9232 21.5349 18.8399 21.5337H17.2836C17.2374 21.5334 17.1916 21.5424 17.1489 21.56C17.1061 21.5776 17.0674 21.6036 17.0348 21.6364C17.0022 21.6691 16.9765 21.7081 16.9591 21.7509C16.9417 21.7937 16.9331 21.8396 16.9336 21.8858Z" fill="#B3B8D8"></path>
</svg>