<svg width="41" height="41" viewBox="0 0 41 41" fill="none" xmlns="http://www.w3.org/2000/svg">
<path fill-rule="evenodd" clip-rule="evenodd" d="M13.2563 7.65065C13.2563 7.23398 13.6271 6.5569 14.8667 5.92148C16.0417 5.31732 17.7375 4.90898 19.6667 4.90898C21.5958 4.90898 23.2917 5.31732 24.4667 5.92148C25.7063 6.5569 26.0771 7.23398 26.0771 7.65065V12.3132C26.0771 14.0673 25.9646 15.2923 25.7396 16.1611C25.5188 17.0048 25.2104 17.4277 24.8625 17.6882C24.4854 17.9652 23.9188 18.159 22.9729 18.2632C22.025 18.3673 20.8458 18.3673 19.3104 18.3673H19.2563C17.9646 18.3673 16.7979 18.3673 15.8146 18.4861C14.8104 18.609 13.8583 18.8673 13.0792 19.4923C12.2833 20.1298 11.8 21.034 11.5125 22.1798C11.2688 23.159 11.1521 24.3673 11.125 25.8465H7.87917C7.4625 25.8465 6.78542 25.4757 6.15 24.2361C5.54583 23.0611 5.1375 21.3652 5.1375 19.4361C5.1375 17.5069 5.54583 15.8111 6.15 14.6361C6.78542 13.3965 7.4625 13.0257 7.87917 13.0257H19.6667V10.8902H13.2563V7.65065ZM7.87917 27.984H11.1188V31.2257C11.1188 32.8715 12.4229 34.1027 13.8896 34.8569C15.4208 35.6423 17.4646 36.1048 19.6667 36.1048C21.8688 36.1048 23.9104 35.6423 25.4417 34.8548C26.9104 34.1048 28.2125 32.8736 28.2125 31.2257V27.9861H31.4542C33.1 27.9861 34.3313 26.6819 35.0854 25.2152C35.8708 23.6819 36.3333 21.6402 36.3333 19.4382C36.3333 17.2361 35.8708 15.1923 35.0833 13.6632C34.3333 12.1944 33.1021 10.8923 31.4542 10.8923H28.2146V7.64857C28.2146 6.00065 26.9104 4.77148 25.4438 4.01732C23.9083 3.23398 21.8667 2.77148 19.6667 2.77148C17.4646 2.77148 15.4208 3.23398 13.8917 4.02148C12.4229 4.77148 11.1208 6.00273 11.1208 7.65065V10.8902H7.87708C6.22917 10.8902 5 12.1944 4.24583 13.6611C3.4625 15.1944 3 17.2382 3 19.4382C3 21.6402 3.4625 23.6819 4.25 25.2132C5 26.6819 6.23125 27.984 7.87917 27.984ZM19.6667 27.984H26.0771V31.2257C26.0771 31.6423 25.7063 32.3194 24.4667 32.9548C23.2917 33.559 21.5958 33.9673 19.6667 33.9673C17.7375 33.9673 16.0417 33.559 14.8667 32.9548C13.6271 32.3194 13.2563 31.6423 13.2563 31.2257V26.5632C13.2563 24.8111 13.3667 23.5777 13.5854 22.7048C13.8 21.8465 14.0958 21.4194 14.4125 21.1632C14.7458 20.8986 15.2417 20.7132 16.0729 20.6132C16.9125 20.509 17.9521 20.509 19.3104 20.509H19.3625C20.8333 20.509 22.1292 20.509 23.2042 20.3902C24.2958 20.2715 25.3083 20.0194 26.1333 19.409C26.9875 18.7777 27.5042 17.8673 27.8063 16.7048C28.0625 15.7236 28.1813 14.509 28.2063 13.0298H31.4563C31.8729 13.0298 32.5479 13.4007 33.1854 14.6402C33.7875 15.8152 34.1958 17.5111 34.1958 19.4402C34.1958 21.3694 33.7875 23.0652 33.1833 24.2402C32.5479 25.4798 31.8708 25.8507 31.4542 25.8507H19.6667V27.9882V27.984ZM15.875 9.72148C16.0508 9.72148 16.2248 9.68686 16.3872 9.61959C16.5496 9.55233 16.6972 9.45373 16.8215 9.32944C16.9458 9.20514 17.0444 9.05758 17.1117 8.89518C17.1789 8.73278 17.2135 8.55872 17.2135 8.38294C17.2135 8.20716 17.1789 8.03311 17.1117 7.87071C17.0444 7.70831 16.9458 7.56075 16.8215 7.43645C16.6972 7.31216 16.5496 7.21356 16.3872 7.14629C16.2248 7.07902 16.0508 7.0444 15.875 7.0444C15.52 7.0444 15.1795 7.18543 14.9285 7.43645C14.6775 7.68748 14.5365 8.02794 14.5365 8.38294C14.5365 8.73795 14.6775 9.07841 14.9285 9.32944C15.1795 9.58046 15.52 9.72148 15.875 9.72148ZM23.4646 31.8402C23.8199 31.8402 24.1606 31.6991 24.4118 31.4479C24.663 31.1967 24.8042 30.8559 24.8042 30.5007C24.8042 30.1454 24.663 29.8046 24.4118 29.5534C24.1606 29.3022 23.8199 29.1611 23.4646 29.1611C23.1093 29.1611 22.7686 29.3022 22.5174 29.5534C22.2661 29.8046 22.125 30.1454 22.125 30.5007C22.125 30.8559 22.2661 31.1967 22.5174 31.4479C22.7686 31.6991 23.1093 31.8402 23.4646 31.8402Z" fill="#B3B8D8"></path>
</svg>