<svg width="40" height="41" viewBox="0 0 40 41" fill="none" xmlns="http://www.w3.org/2000/svg">
<path d="M25.9268 6.60558C25.7988 6.54492 25.6579 6.51631 25.5164 6.52225L19.1789 6.5785C19.0772 6.57736 18.9762 6.59501 18.881 6.63058L13.8289 8.36808C13.7538 8.38765 13.6826 8.42007 13.6185 8.46392L9.00182 11.4681C8.85819 11.5626 8.74296 11.6944 8.66848 11.8493L8.64348 11.9014L5.36015 18.6535C5.25169 18.874 5.23374 19.1282 5.31015 19.3618C5.04348 20.3348 4.84557 21.3327 5.16432 22.2618C5.66432 23.7077 6.85182 24.7077 8.40807 25.3639L8.38723 25.4035L25.3789 33.7223L32.3789 19.3264L32.4435 19.1931L34.0664 15.8598L34.0539 15.8514C34.5497 14.6452 34.6643 13.4285 34.2602 12.2493C33.9393 11.3202 33.1706 10.6556 32.3601 10.0535C32.276 9.82309 32.1068 9.6337 31.8872 9.52433L25.9393 6.61392L25.9268 6.60558ZM27.9206 9.68892L30.8997 11.1473C30.9289 11.1711 30.9603 11.192 30.9935 11.2098C31.7747 11.6681 32.2518 12.2223 32.4727 12.8639C32.8247 13.8681 32.4872 15.1681 31.4664 16.5764L28.1081 10.0285L28.0872 9.98683C28.081 9.966 28.0706 9.9535 28.0622 9.93892L27.9206 9.68892ZM24.9872 8.41808L26.0706 10.266L22.5477 13.8618L15.4643 16.2952L10.8289 14.9139L10.5414 12.7327L14.556 10.1223L19.356 8.466L24.9893 8.41808H24.9872ZM27.0102 12.016L29.4268 16.7452L24.6622 14.4118L27.0102 12.016ZM23.906 16.1493L29.2977 18.7889C27.7706 20.066 25.7872 21.2577 23.4685 22.2389L23.906 16.1493ZM22.0185 16.0473L21.5456 22.5785L17.1518 17.7223L22.0185 16.0473ZM29.406 21.1139L25.0935 29.9848L23.2852 24.7306L23.3122 24.3348C25.6268 23.4431 27.6956 22.3493 29.406 21.1139ZM14.0331 17.8493L11.281 22.3098L10.9935 16.9348L14.0331 17.8493ZM8.99973 15.491L9.03307 15.7306L9.46432 23.7306C8.1414 23.241 7.25598 22.5285 6.95182 21.6473L6.94557 21.6431C6.72473 21.0014 6.76223 20.2785 7.09973 19.4327C7.1159 19.3989 7.12779 19.3632 7.13515 19.3264L8.99973 15.4931V15.491ZM15.6289 18.8598L19.8164 23.4952C17.0497 24.2368 14.4206 24.5056 12.2664 24.3223L15.6289 18.8598ZM21.231 25.0493L21.4977 25.3452L23.306 30.5993L14.4456 26.2618C16.5539 26.1848 18.8581 25.7723 21.231 25.0493Z" fill="#B3B8D8"></path>
</svg>