<svg width="64" height="64" viewBox="0 0 64 64" fill="none" xmlns="http://www.w3.org/2000/svg">
<g clip-path="url(#clip0_1195_7758)">
<path d="M32.1582 0.666016L33.0309 3.40056H35.8818L33.5546 5.02965L34.4855 7.7642L32.1582 6.07692L29.8309 7.7642L30.7618 5.02965L28.4346 3.40056H31.2855L32.1582 0.666016Z" fill="#B3B8D8"/>
<path d="M45.4814 3.98242L46.3542 6.71697H49.2051L46.8778 8.34606L47.7505 11.0806L45.4814 9.39333L43.1542 11.0806L44.0269 8.34606L41.7578 6.71697H44.6087L45.4814 3.98242Z" fill="#B3B8D8"/>
<path d="M55.3731 12.8262L56.2458 15.5025H59.0967L56.8276 17.1898L57.7003 19.8662L55.3731 18.2371L53.104 19.8662L53.9767 17.1898L51.6494 15.5025H54.5003L55.3731 12.8262Z" fill="#B3B8D8"/>
<path d="M60.2607 25.4512L61.1335 28.1275H63.9844L61.6571 29.8148L62.5298 32.4912L60.2607 30.8039L57.9335 32.4912L58.8062 29.8148L56.5371 28.1275H59.388L60.2607 25.4512Z" fill="#B3B8D8"/>
<path d="M58.5732 39.1836L59.446 41.9181H62.2969L59.9696 43.6054L60.8423 46.2818L58.5732 44.5945L56.246 46.2818L57.1187 43.6054L54.8496 41.9181H57.7005L58.5732 39.1836Z" fill="#B3B8D8"/>
<path d="M50.9512 50.1211L51.8239 52.8556H54.6748L52.4057 54.5429L53.2784 57.2193L50.9512 55.532L48.6821 57.2193L49.5548 54.5429L47.2275 52.8556H50.0784L50.9512 50.1211Z" fill="#B3B8D8"/>
<path d="M39.1397 56.4043L40.0124 59.1388H42.8633L40.536 60.7679L41.4087 63.5025L39.1397 61.8152L36.8124 63.5025L37.6851 60.7679L35.416 59.1388H38.2669L39.1397 56.4043Z" fill="#B3B8D8"/>
<path d="M25.1768 56.4043L26.0495 59.1388H28.9004L26.6313 60.7679L27.504 63.5025L25.1768 61.8152L22.9077 63.5025L23.7804 60.7679L21.4531 59.1388H24.304L25.1768 56.4043Z" fill="#B3B8D8"/>
<path d="M13.3662 50.1211L14.2389 52.8556H17.0898L14.7626 54.5429L15.6353 57.2193L13.3662 55.532L11.0389 57.2193L11.9117 54.5429L9.64258 52.8556H12.4935L13.3662 50.1211Z" fill="#B3B8D8"/>
<path d="M5.74414 39.1836L6.61687 41.9181H9.46778L7.19869 43.6054L8.07142 46.2818L5.74414 44.5945L3.47505 46.2818L4.34778 43.6054L2.02051 41.9181H4.87142L5.74414 39.1836Z" fill="#B3B8D8"/>
<path d="M4.05664 25.4512L4.92937 28.1275H7.78028L5.51119 29.8148L6.38392 32.4912L4.05664 30.8039L1.78755 32.4912L2.66028 29.8148L0.333008 28.1275H3.18392L4.05664 25.4512Z" fill="#B3B8D8"/>
<path d="M8.94434 12.8262L9.81707 15.5025H12.668L10.3407 17.1898L11.2134 19.8662L8.94434 18.2371L6.61707 19.8662L7.48979 17.1898L5.2207 15.5025H8.07161L8.94434 12.8262Z" fill="#B3B8D8"/>
<path d="M18.835 3.98242L19.7077 6.71697H22.5586L20.2895 8.34606L21.1622 11.0806L18.835 9.39333L16.5659 11.0806L17.4386 8.34606L15.1113 6.71697H17.9622L18.835 3.98242Z" fill="#B3B8D8"/>
<path d="M32.1582 0.666016L33.0309 3.40056H35.8818L33.5546 5.02965L34.4855 7.7642L32.1582 6.07692L29.8309 7.7642L30.7618 5.02965L28.4346 3.40056H31.2855L32.1582 0.666016Z" fill="#B3B8D8"/>
<path d="M40.2461 29.5231V25.974C40.2461 21.494 36.6388 17.8867 32.1588 17.8867C27.6788 17.8867 24.0715 21.494 24.0715 25.974V29.5231C22.326 29.5231 20.9297 30.9194 20.9297 32.6649V43.1376C20.9297 44.8831 22.326 46.2794 24.0715 46.2794H40.2461C41.9915 46.2794 43.3879 44.8831 43.3879 43.1376V32.6649C43.3879 30.9194 41.9915 29.5231 40.2461 29.5231ZM33.497 42.614H30.8788C30.4715 42.614 30.1806 42.2649 30.2388 41.9158L30.8788 37.494C30.5297 37.1449 30.297 36.6794 30.297 36.0976C30.297 35.0504 31.1115 34.2358 32.1588 34.2358C33.206 34.2358 34.0206 35.0504 34.0206 36.0976C34.0206 36.6213 33.7879 37.1449 33.4388 37.4358L34.137 41.8576C34.1951 42.2649 33.9042 42.614 33.497 42.614ZM36.8133 29.5231H27.5042V25.974C27.5042 23.414 29.5988 21.3194 32.1588 21.3194C34.7188 21.3194 36.8133 23.414 36.8133 25.974V29.5231Z" fill="#B3B8D8"/>
</g>
<defs>
<clipPath id="clip0_1195_7758">
<rect width="64" height="64" fill="white"/>
</clipPath>
</defs>
</svg>
