<svg width="64" height="64" viewBox="0 0 64 64" fill="none" xmlns="http://www.w3.org/2000/svg">
<path d="M24.681 50.0085C24.6997 51.3124 24.7183 52.2624 24.7369 52.7281C24.7555 52.7839 24.7555 52.8584 24.7369 52.9143C24.7369 52.9888 24.7369 53.0447 24.7369 53.0447C24.7369 53.3055 24.7742 53.5663 24.8487 53.8084C24.9232 53.5663 24.9604 53.3055 24.9604 53.0447C24.9604 52.9516 24.9977 51.5918 25.0536 49.4124C25.035 49.431 25.0163 49.4497 25.0163 49.4683C24.8859 49.6359 24.7742 49.8222 24.681 50.0085ZM20.8066 22.8128C21.1046 22.4961 21.384 22.1235 21.5889 21.7324C21.4399 22.0677 20.8625 23.3343 21.4213 23.4461C22.036 23.5578 22.7252 23.3716 23.9732 21.7883C23.9359 19.7579 23.8987 17.9883 23.8801 16.6471H23.2095C23.1722 16.6471 23.1536 16.6471 23.1164 16.6471C22.7438 16.6471 22.1291 16.6099 21.7193 15.9952C21.2723 15.3246 21.2536 14.6354 21.235 14.1325C21.2164 13.406 21.0301 12.0835 20.1174 11.3384C19.484 10.8355 17.7703 10.4443 16.187 11.0776C15.6655 11.2825 14.6223 11.8227 13.5978 12.3256C12.6665 12.7913 11.4743 13.3688 11.1018 13.3688C11.7165 13.0893 12.5361 12.6795 13.4302 12.1766C14.4547 11.6178 15.5351 11.0217 16.0753 10.7982C17.1556 10.3698 19.2233 10.2394 20.285 11.0962C21.2909 11.9158 21.4958 13.3315 21.5144 14.0952C21.533 14.5981 21.5517 15.2128 21.9428 15.8275C22.2968 16.3491 22.8556 16.3491 23.1909 16.3491H23.2654H23.8614C23.8614 16.1815 23.8614 16.0324 23.8614 15.8648C23.2654 15.9021 22.4085 15.9393 22.036 15.1383C21.5889 14.1697 22.0732 11.6923 20.5831 10.6492C19.0929 9.60606 16.7086 9.86684 14.5851 11.0962C12.4802 12.307 9.68613 13.8903 6.2401 15.2687C2.79406 16.6471 0.651935 17.206 0.242136 17.2618C-0.149035 17.3363 0.558799 17.5971 2.03035 17.6344C3.5019 17.6716 4.73129 17.5599 4.73129 17.5599L15.5351 12.6423C15.5351 12.6423 6.22147 17.2805 5.43913 17.7834C4.65678 18.2863 4.02346 18.454 4.07934 18.9197C4.13522 19.3853 4.73129 19.3295 6.37049 19.2922C8.00968 19.255 8.3636 19.1059 8.92241 18.9383C9.48123 18.7706 15.5351 15.9766 15.5351 15.9766C15.5351 15.9766 9.05281 19.1991 8.12145 19.9442C7.19009 20.6892 8.19595 20.9314 8.82928 20.95C9.48123 20.9687 11.2136 20.8755 12.1822 20.3912C13.1508 19.9069 16.1684 17.9697 16.1684 17.9697C16.1684 17.9697 13.188 20.1118 12.6106 20.5961C12.1449 20.9873 11.9028 21.3226 12.0145 21.7324C12.1822 22.2539 13.0763 22.1981 14.2684 21.7696C14.2684 21.7696 15.4978 21.3412 15.9635 20.9314C16.4292 20.503 17.7331 19.3481 17.7331 19.3481C17.7331 19.3481 16.187 20.95 15.7959 21.6392C15.4233 22.3284 15.3488 22.4961 15.5351 22.8873C15.7959 23.4461 17.7703 22.8686 18.3292 22.2726C18.739 21.8069 19.1301 21.3226 19.484 20.801C19.484 20.801 18.888 21.7696 18.7576 22.3284C18.6272 22.8873 18.4782 23.3343 19.0184 23.3902C19.6144 23.4833 20.1733 23.502 20.8066 22.8128ZM24.4948 35.4979C24.5506 35.4606 24.6065 35.4234 24.6624 35.3861C24.7742 35.3116 24.8673 35.2557 24.9418 35.1812C25.0908 35.0881 25.2399 34.9763 25.3889 34.8832C25.4075 33.8214 25.4448 32.7411 25.4634 31.6793C25.1653 31.5489 24.8487 31.4185 24.5134 31.2881C24.4948 31.2881 24.4761 31.2695 24.4575 31.2695C24.4203 31.2509 24.4016 31.2509 24.3644 31.2323C24.1409 31.1577 23.9359 31.0646 23.6938 30.9901C23.4144 30.8783 23.135 30.7852 22.8556 30.6734C20.9928 31.6607 20.6203 32.1264 20.6203 33.0391C20.6203 34.3244 21.7193 34.9018 23.6193 36.1126C23.9173 35.8891 24.2154 35.6842 24.4948 35.4979ZM22.2036 33.2067C22.2036 33.2067 22.0732 32.3871 24.1781 31.4372C24.234 31.4185 24.2899 31.3813 24.3457 31.3626C24.3644 32.6479 24.383 33.9332 24.4203 35.2185C23.3771 34.5106 22.2036 33.8401 22.2036 33.2067ZM25.3889 49.0212C25.2957 49.133 25.2026 49.2448 25.1095 49.3379C25.6497 50.0644 25.6124 50.7722 25.3144 51.6849C25.5938 51.3683 26.1526 50.5673 25.6869 49.5242C25.5938 49.3565 25.5006 49.1889 25.3889 49.0212ZM24.532 41.3841C24.7369 41.589 24.9791 41.8311 25.2212 42.0733C25.3702 42.2223 25.5193 42.3713 25.6869 42.539C25.7055 42.5576 25.7428 42.5762 25.78 42.6135C27.0467 41.5145 28.2016 40.4713 28.2016 39.1674C28.2016 38.1429 27.2143 37.2116 26.2271 36.4665C26.134 36.5224 26.0408 36.5783 25.9477 36.6528C25.7242 36.8018 25.5193 36.9322 25.333 37.0626C25.333 37.0626 25.3144 37.0626 25.3144 37.0812C25.2771 37.1185 25.2212 37.1371 25.184 37.1743C24.9232 37.3606 24.681 37.5283 24.4575 37.6959C24.4948 38.9439 24.5134 40.1919 24.532 41.3841ZM25.333 37.2675C26.5624 38.1616 27.0467 38.739 27.0467 39.3723C27.0467 40.0243 26.3575 40.788 25.2399 41.9056C25.2585 40.4155 25.2957 38.8694 25.333 37.2675ZM32.1319 19.3667C32.1319 19.3667 33.4358 20.5216 33.9015 20.95C34.3672 21.3785 35.5966 21.7883 35.5966 21.7883C36.7887 22.2167 37.6828 22.2726 37.8505 21.751C37.9809 21.3412 37.7201 20.9873 37.2544 20.6147C36.677 20.1304 33.6966 17.9883 33.6966 17.9883C33.6966 17.9883 36.7142 19.9255 37.6828 20.4098C38.6514 20.8941 40.3838 20.9873 41.0357 20.9687C41.6877 20.95 42.6749 20.7079 41.7436 19.9628C40.8122 19.2177 34.3299 15.9952 34.3299 15.9952C34.3299 15.9952 40.3652 18.8079 40.9426 18.9569C41.5014 19.1246 41.8553 19.255 43.4945 19.3108C45.1337 19.3481 45.7112 19.404 45.7857 18.9383C45.8602 18.4912 45.2082 18.3236 44.4259 17.802C43.6435 17.2991 34.3299 12.6609 34.3299 12.6609L45.1337 17.5785C45.1337 17.5785 46.3631 17.6903 47.8347 17.653C49.3062 17.6158 50.014 17.355 49.6229 17.2805C49.2317 17.206 47.0709 16.6658 43.6249 15.2874C40.1789 13.9089 37.3848 12.3443 35.2799 11.1149C33.175 9.90409 30.7721 9.62468 29.282 10.6678C27.7918 11.7109 28.2761 14.1697 27.829 15.157C27.4565 15.9579 26.5996 15.9207 26.0036 15.8834C26.0036 16.0324 26.0036 16.2001 25.9849 16.3677H26.5996H26.6742C27.0094 16.3677 27.5683 16.3677 27.9222 15.8462C28.3133 15.2501 28.332 14.6168 28.3506 14.1138C28.3692 13.3501 28.5741 11.9345 29.58 11.1149C30.6417 10.258 32.7094 10.3884 33.7897 10.8168C34.3299 11.0217 35.4103 11.6178 36.4348 12.1952C37.3289 12.6982 38.1485 13.108 38.7632 13.3874C38.372 13.3874 37.1985 12.8099 36.2672 12.3443C35.2613 11.8227 34.2182 11.3011 33.678 11.0962C32.0947 10.4629 30.381 10.8541 29.7476 11.357C28.8163 12.1021 28.6486 13.4246 28.63 14.1511C28.6114 14.654 28.5928 15.3619 28.1457 16.0138C27.7545 16.6285 27.1398 16.6658 26.7487 16.6658C26.7114 16.6658 26.6928 16.6658 26.6555 16.6658H25.9849C25.9477 18.0069 25.9104 19.7579 25.8732 21.751C27.1398 23.3716 27.8663 23.5765 28.4624 23.4461C29.0212 23.3343 28.4624 22.0677 28.2947 21.7324C28.5182 22.1235 28.779 22.4775 29.0771 22.8128C29.6918 23.502 30.2692 23.4833 30.828 23.4088C31.3868 23.3343 31.2192 22.9059 31.0888 22.3471C30.9584 21.7883 30.3623 20.8196 30.3623 20.8196C30.7163 21.3226 31.1074 21.8255 31.5172 22.2912C32.076 22.8873 34.0505 23.4833 34.3113 22.9059C34.479 22.5333 34.4231 22.3471 34.0505 21.6579C33.6966 20.9687 32.1319 19.3667 32.1319 19.3667ZM24.9604 13.6668C25.2585 13.6668 25.5565 13.5737 25.7987 13.406C26.0408 13.2384 26.2457 12.9962 26.3575 12.7354C26.4693 12.456 26.5065 12.158 26.4506 11.86C26.3947 11.5619 26.2457 11.3011 26.0408 11.0776C25.8359 10.8727 25.5565 10.7237 25.2585 10.6678C24.9604 10.6119 24.6624 10.6306 24.383 10.7609C24.1036 10.8727 23.8614 11.0776 23.7124 11.3198C23.5448 11.5619 23.4516 11.86 23.4516 12.158C23.4516 12.3629 23.4889 12.5492 23.5634 12.7354C23.6379 12.9217 23.7497 13.0893 23.8987 13.2197C24.0477 13.3688 24.1967 13.4805 24.383 13.555C24.5506 13.6295 24.7555 13.6668 24.9604 13.6668ZM29.9153 24.9921C29.9153 24.9921 29.878 23.949 28.183 23.8372C26.4506 23.7255 26.3761 24.4706 26.4134 24.75C26.5438 24.75 26.6555 24.7872 26.6555 24.8245C26.6555 24.8617 26.5624 24.899 26.4506 24.899C26.5438 25.1784 26.8045 25.5137 27.5496 25.8862C28.1643 26.1843 28.4624 26.1656 28.8163 26.1098C28.8163 26.1098 29.2261 26.3519 29.2261 26.7431C29.2261 27.1156 28.5741 27.8421 25.5193 29.3695C25.7055 21.1363 25.8732 13.9089 25.8732 13.9089H26.0595C26.134 13.9089 26.2085 13.8717 26.2644 13.8158C26.3202 13.7599 26.3575 13.6854 26.3575 13.6109V13.5178C26.3575 13.4805 26.3575 13.4433 26.3389 13.406C26.3202 13.3688 26.3016 13.3315 26.2644 13.3129C26.0967 13.4991 25.9104 13.6482 25.6869 13.7599C25.4634 13.8717 25.2212 13.9089 24.9791 13.9089C24.7369 13.9089 24.4948 13.8531 24.2712 13.7599C24.0477 13.6668 23.8428 13.4991 23.6938 13.3129C23.6565 13.3501 23.6379 13.3688 23.6193 13.406C23.6007 13.4433 23.6007 13.4805 23.6007 13.5178V13.6109C23.6007 13.6854 23.6379 13.7599 23.6938 13.8158C23.7497 13.8717 23.8242 13.9089 23.8987 13.9089H24.085C24.085 13.9089 24.2154 20.9314 24.3457 29.0156C24.6065 29.146 24.8673 29.2764 25.1653 29.4254C25.2026 29.444 25.2585 29.4627 25.2957 29.4813C25.9849 29.8166 26.5624 30.096 27.0467 30.3568C28.6859 29.7234 30.2878 28.997 30.7721 27.9725C31.629 26.0725 29.9153 24.9921 29.9153 24.9921ZM27.6428 24.5637C27.4565 24.5637 27.3075 24.4706 27.3075 24.3588C27.3075 24.247 27.4565 24.1539 27.6428 24.1539C27.829 24.1539 27.9781 24.247 27.9781 24.3588C27.9781 24.4706 27.829 24.5637 27.6428 24.5637ZM24.681 48.1458C24.8301 47.9595 24.9604 47.7732 25.1095 47.6056C25.1281 46.5438 25.1653 45.3517 25.184 44.0664C24.9977 43.8801 24.7928 43.6939 24.5693 43.489C24.4948 43.4331 24.4389 43.3586 24.3644 43.3027C24.2712 43.2096 24.1781 43.135 24.085 43.0605C23.5634 43.5448 22.5389 44.6252 22.5389 45.5566C22.5389 46.6556 23.6007 47.7732 24.4016 48.5742C24.4761 48.4065 24.5693 48.2762 24.681 48.1458ZM24.5693 43.7125C24.6065 45.2958 24.6252 46.7487 24.6438 47.9967C24.0291 47.1771 23.3771 46.3389 23.3771 45.7615C23.3771 45.2213 23.6938 44.6066 24.5693 43.7125ZM24.9977 29.6676C21.3654 27.9166 20.6203 27.1156 20.6203 26.7245C20.6203 26.3333 21.0301 26.0911 21.0301 26.0911C21.384 26.1657 21.6821 26.1657 22.2968 25.8676C23.0418 25.5137 23.3026 25.1598 23.3958 24.8804C23.284 24.8804 23.1909 24.8431 23.1909 24.8059C23.1909 24.7686 23.3026 24.7314 23.433 24.7314V24.7127C23.4516 24.4333 23.3585 23.7069 21.6448 23.8186C19.9497 23.9304 19.9125 24.9735 19.9125 24.9735C19.9125 24.9735 18.1988 26.0725 19.0929 27.9352C19.8752 29.5931 23.5448 30.4685 25.6683 31.4185C27.7732 32.3685 27.6428 33.1881 27.6428 33.1881C27.6428 33.8959 26.2271 34.641 25.1095 35.4234C23.9918 36.2057 21.6262 37.5655 21.6262 39.1674C21.6262 40.639 23.0977 41.7753 24.532 43.0419C25.9849 44.3086 26.4506 45.0723 26.4506 45.7801C26.4506 46.7487 24.8487 48.0526 24.0291 49.6732C23.2095 51.2938 24.8301 53.8084 24.3271 52.4859C23.8056 51.1634 24.085 50.232 24.7555 49.3007C25.5751 48.1644 27.3261 47.0468 27.3261 45.538C27.3261 44.2713 25.482 42.7811 25.482 42.7811C23.8428 41.1419 22.7997 40.2106 22.7997 39.391C22.7997 38.5714 23.582 37.8449 25.78 36.4106C27.9594 34.9949 29.2447 34.4361 29.2447 33.0577C29.2447 31.847 28.63 31.4185 24.9977 29.6676ZM22.2036 24.1725C22.3899 24.1725 22.5389 24.2657 22.5389 24.3774C22.5389 24.4892 22.3899 24.5823 22.2036 24.5823C22.0173 24.5823 21.8683 24.4892 21.8683 24.3774C21.8683 24.2657 22.0173 24.1725 22.2036 24.1725Z" fill="#B3B8D8"/>
<path d="M57.5133 34.9094H55.0628L54.6418 36.1052H53.6396L55.7365 30.2441H56.8481L58.9449 36.1052H57.9344L57.5133 34.9094ZM57.2439 34.1262L56.2923 31.4062L55.3323 34.1262H57.2439Z" fill="#B3B8D8"/>
<path d="M51.6422 34.9094H49.1917L48.7707 36.1052H47.7686L49.8654 30.2441H50.977L53.0738 36.1052H52.0633L51.6422 34.9094ZM51.3728 34.1262L50.4212 31.4062L49.4612 34.1262H51.3728Z" fill="#B3B8D8"/>
<path d="M47.1981 31.9951C47.1981 32.2927 47.1279 32.5734 46.9876 32.8372C46.8472 33.1011 46.6227 33.3172 46.3139 33.4856C46.0051 33.6484 45.6093 33.7298 45.1265 33.7298H44.0655V36.1046H43.1055V30.252H45.1265C45.5756 30.252 45.9546 30.3305 46.2634 30.4877C46.5777 30.6393 46.8107 30.847 46.9623 31.1109C47.1195 31.3748 47.1981 31.6695 47.1981 31.9951ZM45.1265 32.9467C45.4914 32.9467 45.7637 32.8653 45.9434 32.7025C46.123 32.5341 46.2128 32.2983 46.2128 31.9951C46.2128 31.3551 45.8507 31.0351 45.1265 31.0351H44.0655V32.9467H45.1265Z" fill="#B3B8D8"/>
<path d="M41.8448 30.252V36.1046H40.8848V30.252H41.8448Z" fill="#B3B8D8"/>
<path d="M39.6209 30.252V36.1046H38.6609V33.5446H35.9073V36.1046H34.9473V30.252H35.9073V32.7614H38.6609V30.252H39.6209Z" fill="#B3B8D8"/>
<path d="M63.4618 38.6738V44.5265H62.5018V41.9665H59.7481V44.5265H58.7881V38.6738H59.7481V41.1833H62.5018V38.6738H63.4618Z" fill="#B3B8D8"/>
<path d="M51.9541 41.5871C51.9541 41.0145 52.086 40.5008 52.3499 40.0461C52.6194 39.5913 52.9815 39.2377 53.4362 38.985C53.8966 38.7268 54.399 38.5977 54.9436 38.5977C55.5667 38.5977 56.1197 38.752 56.6025 39.0608C57.0909 39.364 57.4446 39.7963 57.6636 40.3577H56.5099C56.3583 40.0489 56.1478 39.8187 55.8783 39.6671C55.6088 39.5156 55.2973 39.4398 54.9436 39.4398C54.5562 39.4398 54.2109 39.5268 53.9078 39.7008C53.6046 39.8748 53.366 40.1247 53.192 40.4503C53.0236 40.7759 52.9394 41.1548 52.9394 41.5871C52.9394 42.0194 53.0236 42.3984 53.192 42.724C53.366 43.0496 53.6046 43.3022 53.9078 43.4819C54.2109 43.6559 54.5562 43.7429 54.9436 43.7429C55.2973 43.7429 55.6088 43.6671 55.8783 43.5156C56.1478 43.364 56.3583 43.1338 56.5099 42.825H57.6636C57.4446 43.3864 57.0909 43.8187 56.6025 44.1219C56.1197 44.425 55.5667 44.5766 54.9436 44.5766C54.3934 44.5766 53.8909 44.4503 53.4362 44.1977C52.9815 43.9394 52.6194 43.5829 52.3499 43.1282C52.086 42.6734 51.9541 42.1598 51.9541 41.5871Z" fill="#B3B8D8"/>
<path d="M48.8184 39.4492V41.1671H50.8395V41.9502H48.8184V43.7439H51.0921V44.5271H47.8584V38.666H51.0921V39.4492H48.8184Z" fill="#B3B8D8"/>
<path d="M46.886 38.6738V39.457H45.3281V44.5265H44.3681V39.457H42.8018V38.6738H46.886Z" fill="#B3B8D8"/>
<path d="M41.8448 38.6738V44.5265H40.8848V38.6738H41.8448Z" fill="#B3B8D8"/>
<path d="M39.6209 38.6738V44.5265H38.6609V41.9665H35.9073V44.5265H34.9473V38.6738H35.9073V41.1833H38.6609V38.6738H39.6209Z" fill="#B3B8D8"/>
</svg>
