<svg width="64" height="64" viewBox="0 0 64 64" fill="none" xmlns="http://www.w3.org/2000/svg">
<g clip-path="url(#clip0_1195_7764)">
<path d="M32.0003 63.9088C49.6127 63.9088 63.8903 49.6312 63.8903 32.0189C63.8903 14.4065 49.6127 0.128906 32.0003 0.128906C14.388 0.128906 0.110352 14.4065 0.110352 32.0189C0.110352 49.6312 14.388 63.9088 32.0003 63.9088Z" fill="url(#paint0_linear_1195_7764)"/>
<path d="M31.9998 56.7555C45.6623 56.7555 56.7379 45.6799 56.7379 32.0174C56.7379 18.3549 45.6623 7.2793 31.9998 7.2793C18.3373 7.2793 7.26172 18.3549 7.26172 32.0174C7.26172 45.6799 18.3373 56.7555 31.9998 56.7555Z" fill="#101323"/>
<path d="M12.0116 52.6298C12.1033 52.5381 12.14 52.4465 12.1216 52.3364C12.1033 52.2264 12.0483 52.0614 11.9383 51.8596C11.8282 51.6579 11.7549 51.4745 11.7365 51.3462C11.6999 51.1628 11.7549 51.0161 11.8833 50.8877C12.0116 50.7777 12.1583 50.7227 12.3234 50.741C12.4884 50.7594 12.6535 50.851 12.8185 51.0161C12.9285 51.1261 13.0019 51.2361 13.0386 51.3645C13.0752 51.4929 13.0936 51.6029 13.0569 51.7313C13.0386 51.8413 12.9652 51.9513 12.8918 52.043L12.7635 51.9147C12.8735 51.8046 12.9285 51.6946 12.9102 51.5479C12.9102 51.4012 12.8368 51.2728 12.7085 51.1628C12.5984 51.0344 12.4701 50.9794 12.3417 50.9611C12.2133 50.9427 12.1033 50.9794 12.03 51.0711C11.9566 51.1445 11.9199 51.2545 11.9383 51.3645C11.9566 51.4745 12.0116 51.6212 12.1033 51.8046C12.195 51.988 12.2684 52.1347 12.305 52.2447C12.3417 52.3548 12.3417 52.4648 12.3234 52.5565C12.305 52.6482 12.25 52.7399 12.1767 52.8132C12.0483 52.9416 11.9016 52.9783 11.7365 52.9599C11.5715 52.9416 11.4065 52.8499 11.2414 52.6849C11.1314 52.5748 11.058 52.4465 11.003 52.3181C10.948 52.1897 10.9297 52.0614 10.9663 51.9513C11.003 51.8413 11.0397 51.7313 11.1314 51.6396L11.2598 51.7679C11.1497 51.878 11.0947 52.0063 11.1131 52.153C11.1314 52.2998 11.2047 52.4465 11.3514 52.5748C11.4798 52.7032 11.5898 52.7765 11.7182 52.7949C11.8099 52.7582 11.9199 52.7215 12.0116 52.6298ZM14.0105 53.8218C13.8821 53.9685 13.7354 54.0785 13.5704 54.1519C13.4237 54.2253 13.2586 54.2436 13.1119 54.2253C12.9652 54.2069 12.8185 54.1336 12.6901 54.0235C12.4884 53.8585 12.3967 53.6384 12.3967 53.4C12.3967 53.1616 12.5067 52.9232 12.7085 52.6849L12.8552 52.5198C12.9835 52.3731 13.1302 52.2631 13.2953 52.1897C13.4603 52.1164 13.607 52.098 13.7537 52.1164C13.9004 52.1347 14.0471 52.2081 14.1755 52.3181C14.3039 52.4281 14.3956 52.5565 14.4322 52.7032C14.4689 52.8499 14.4689 52.9966 14.4322 53.1616C14.3956 53.3267 14.3039 53.4734 14.1755 53.6201L14.0105 53.8218ZM14.0288 53.5284C14.2122 53.3267 14.3039 53.125 14.3039 52.9416C14.3039 52.7582 14.2305 52.5748 14.0838 52.4465C13.9371 52.3181 13.7537 52.2631 13.5704 52.2998C13.387 52.3364 13.1853 52.4465 13.0202 52.6482L12.8735 52.8132C12.7085 53.0149 12.6168 53.1983 12.5984 53.4C12.5801 53.6018 12.6535 53.7668 12.8185 53.8952C12.9835 54.0419 13.1486 54.0785 13.332 54.0602C13.5153 54.0235 13.6987 53.9135 13.8821 53.6934L14.0288 53.5284ZM15.4775 55.3255C15.3125 55.4906 15.1474 55.5823 14.9641 55.6006C14.7807 55.619 14.5973 55.5456 14.3956 55.4172C14.2672 55.3255 14.1755 55.1972 14.1205 55.0505C14.0655 54.9038 14.0655 54.7571 14.1022 54.592C14.1388 54.427 14.2122 54.2803 14.3222 54.1152L14.4873 53.8952C14.5973 53.7301 14.744 53.6201 14.8907 53.5467C15.0374 53.4734 15.1841 53.4367 15.3308 53.4367C15.4775 53.4551 15.6242 53.5101 15.7526 53.6018C15.936 53.7485 16.046 53.9135 16.0827 54.0969C16.1194 54.2803 16.0643 54.4637 15.9543 54.6654L15.8076 54.5553C15.991 54.2253 15.9543 53.9502 15.6609 53.7301C15.4959 53.6018 15.3308 53.5651 15.1474 53.6201C14.9641 53.6751 14.7807 53.8035 14.634 54.0052L14.4689 54.2253C14.3222 54.427 14.2305 54.6287 14.2305 54.8121C14.2305 54.9955 14.3039 55.1605 14.4689 55.2705C14.634 55.3806 14.7623 55.4356 14.909 55.4172C15.0557 55.3989 15.1841 55.3255 15.3125 55.1972L15.4775 55.3255ZM16.2294 56.6459L17.0363 55.3806L16.7979 55.2339L16.8712 55.1055L17.1096 55.2522L17.2196 55.0871C17.3113 54.9404 17.4214 54.8671 17.5314 54.8304C17.6414 54.7937 17.7698 54.8304 17.8982 54.9038C17.9532 54.9404 18.0082 54.9771 18.0449 55.0321L17.9532 55.1605C17.9165 55.1238 17.8798 55.0871 17.8248 55.0505C17.7331 54.9955 17.6598 54.9771 17.5681 54.9955C17.4947 55.0138 17.4214 55.0871 17.348 55.1788L17.238 55.3439L17.5681 55.5456L17.4947 55.674L17.1646 55.4722L16.3578 56.7376L16.2294 56.6459ZM17.3847 56.3892C17.458 56.2608 17.5681 56.1508 17.6781 56.0591C17.7881 55.9857 17.9165 55.9307 18.0449 55.9307C18.1732 55.9307 18.3016 55.949 18.43 56.0224C18.6133 56.1324 18.7417 56.2791 18.7784 56.4808C18.8151 56.6826 18.7784 56.8843 18.65 57.1043L18.6317 57.141C18.5583 57.2877 18.4483 57.3977 18.3383 57.4711C18.2282 57.5445 18.0999 57.5995 17.9715 57.5995C17.8431 57.5995 17.7148 57.5628 17.5864 57.5078C17.403 57.3977 17.2747 57.251 17.238 57.0493C17.2013 56.8476 17.238 56.6459 17.3663 56.4258L17.3847 56.3892ZM17.5131 56.5175C17.4214 56.6826 17.3847 56.8476 17.403 57.0126C17.4214 57.1777 17.5131 57.2877 17.6598 57.3794C17.8065 57.4528 17.9532 57.4711 18.0999 57.4161C18.2466 57.3611 18.3749 57.2327 18.485 57.0493L18.5033 57.0126C18.5583 56.9026 18.595 56.7926 18.6133 56.6826C18.6317 56.5725 18.6133 56.4625 18.5583 56.3708C18.5216 56.2791 18.4483 56.2058 18.3566 56.1508C18.2099 56.0774 18.0632 56.0591 17.9165 56.1141C17.7698 56.1691 17.6414 56.2975 17.5314 56.4808L17.5131 56.5175ZM19.9887 57.0493C19.952 57.031 19.9153 57.0127 19.8787 56.976C19.7686 56.921 19.6769 56.9026 19.5853 56.9393C19.4936 56.9576 19.4019 57.0126 19.3102 57.1043L18.7967 58.1129L18.6317 58.0396L19.3652 56.5725L19.5302 56.6459L19.4202 56.8843C19.5853 56.7559 19.7686 56.7376 19.9704 56.8293C20.007 56.8476 20.0437 56.8843 20.062 56.9026L19.9887 57.0493ZM21.7675 58.8465C21.8225 58.7364 21.8042 58.6264 21.7492 58.5347C21.6941 58.443 21.5841 58.3147 21.3824 58.168C21.199 58.0212 21.0706 57.8929 20.9973 57.7828C20.9056 57.6178 20.8873 57.4711 20.9423 57.3061C20.9973 57.141 21.1257 57.0493 21.2907 56.9943C21.4557 56.9393 21.6391 56.9576 21.8408 57.0493C21.9692 57.1043 22.0792 57.1777 22.1709 57.2694C22.2626 57.3611 22.3176 57.4711 22.336 57.5995C22.3543 57.7278 22.336 57.8379 22.2993 57.9479L22.1159 57.8745C22.1709 57.7278 22.1709 57.5995 22.1159 57.4711C22.0609 57.3427 21.9509 57.251 21.7858 57.1777C21.6208 57.1227 21.4924 57.1043 21.3641 57.1227C21.2357 57.1594 21.1623 57.2327 21.1073 57.3427C21.0706 57.4528 21.0706 57.5445 21.1257 57.6545C21.1807 57.7462 21.2907 57.8745 21.4557 57.9846C21.6208 58.1129 21.7308 58.223 21.8042 58.3147C21.8775 58.4063 21.9142 58.498 21.9325 58.5897C21.9509 58.6814 21.9325 58.7914 21.8959 58.8831C21.8225 59.0482 21.7125 59.1399 21.5474 59.1949C21.3824 59.2316 21.1807 59.2132 20.979 59.1399C20.8322 59.0849 20.7039 58.9932 20.6122 58.9015C20.5205 58.8098 20.4471 58.6998 20.4288 58.5714C20.4105 58.443 20.4105 58.333 20.4655 58.223L20.6305 58.2963C20.5755 58.443 20.5755 58.5714 20.6489 58.6998C20.7222 58.8281 20.8506 58.9198 21.034 58.9932C21.199 59.0665 21.3274 59.0665 21.4557 59.0482C21.6391 59.0482 21.7125 58.9748 21.7675 58.8465ZM22.7578 59.8C22.6294 59.7634 22.5194 59.69 22.4277 59.58C22.336 59.47 22.281 59.3599 22.2626 59.2316C22.2443 59.1032 22.2626 58.9565 22.2993 58.8098L22.3176 58.7548C22.3727 58.6081 22.446 58.4797 22.5377 58.388C22.6294 58.2963 22.7394 58.223 22.8678 58.1863C22.9961 58.1496 23.1245 58.1496 23.2345 58.2046C23.4179 58.2596 23.5463 58.388 23.6196 58.553C23.693 58.7181 23.6747 58.9198 23.6013 59.1399L23.5646 59.2316L22.446 58.8648L22.4277 58.9015C22.3727 59.0849 22.3727 59.2499 22.4277 59.3966C22.4827 59.5433 22.5927 59.6533 22.7578 59.7084C22.8494 59.745 22.9411 59.745 23.0145 59.745C23.0878 59.745 23.1795 59.7083 23.2529 59.6533L23.3262 59.7634C23.2162 59.8551 22.9961 59.8917 22.7578 59.8ZM23.2162 58.333C23.0878 58.2963 22.9595 58.2963 22.8494 58.3697C22.7394 58.443 22.6294 58.5531 22.556 58.6998L23.4913 59.0115V58.9932C23.528 58.8465 23.528 58.6998 23.4913 58.5897C23.4363 58.4614 23.3446 58.3697 23.2162 58.333ZM24.885 58.8648C24.8483 58.8465 24.8116 58.8281 24.7749 58.8281C24.6649 58.7914 24.5732 58.8098 24.4632 58.8465C24.3715 58.8831 24.2982 58.9565 24.2248 59.0665L23.9131 60.1485L23.748 60.0935L24.1881 58.5164L24.3532 58.5714L24.2798 58.8281C24.4265 58.6631 24.5916 58.6081 24.8116 58.6814C24.8666 58.6998 24.9033 58.7181 24.9216 58.7364L24.885 58.8648ZM25.3984 60.2585L26.2053 59.0115L26.3887 59.0482L25.4168 60.5152L25.2701 60.4785L25.05 58.7364L25.2334 58.7731L25.3984 60.2585ZM26.5721 60.7536L26.3887 60.7169L26.7004 59.1032L26.8838 59.1399L26.5721 60.7536ZM26.7555 58.6447C26.7555 58.6081 26.7738 58.5897 26.8105 58.5714C26.8288 58.553 26.8655 58.553 26.9022 58.553C26.9388 58.553 26.9755 58.5714 26.9939 58.6081C27.0122 58.6447 27.0122 58.6631 27.0122 58.6998C27.0122 58.7364 26.9939 58.7548 26.9572 58.7731C26.9388 58.7914 26.9022 58.7914 26.8655 58.7914C26.8288 58.7914 26.7921 58.7731 26.7738 58.7364C26.7555 58.6998 26.7371 58.6814 26.7555 58.6447ZM27.7274 60.827C27.8557 60.8453 27.9658 60.827 28.0575 60.772C28.1492 60.7169 28.2042 60.6253 28.2408 60.5152L28.4059 60.5336C28.3875 60.6253 28.3509 60.7169 28.2775 60.7903C28.2042 60.8637 28.1308 60.9187 28.0208 60.9553C27.9108 60.992 27.8191 60.992 27.709 60.9737C27.489 60.937 27.3423 60.8453 27.2322 60.6803C27.1222 60.5152 27.1039 60.3135 27.1406 60.0568V60.0018C27.1589 59.8367 27.2139 59.7084 27.2873 59.5983C27.3606 59.4883 27.4523 59.3966 27.5623 59.3416C27.6724 59.2866 27.8007 59.2682 27.9474 59.2866C28.1308 59.3049 28.2592 59.3966 28.3692 59.5066C28.4609 59.635 28.5159 59.7817 28.4976 59.9467L28.3325 59.9284C28.3509 59.8 28.3142 59.69 28.2408 59.5983C28.1675 59.5066 28.0758 59.4516 27.9474 59.4333C27.7824 59.4149 27.654 59.4516 27.544 59.5616C27.434 59.6717 27.3606 59.8184 27.3423 60.0384V60.0935C27.3056 60.2952 27.3239 60.4602 27.3973 60.6069C27.4523 60.7353 27.5623 60.8086 27.7274 60.827ZM29.3961 61.1754C29.2494 61.1571 29.1394 61.1204 29.0294 61.047C28.9194 60.9737 28.846 60.8637 28.791 60.7353C28.736 60.6069 28.7176 60.4602 28.736 60.3135V60.2402C28.7543 60.0751 28.791 59.9467 28.8643 59.8184C28.9377 59.69 29.0294 59.5983 29.1394 59.5433C29.2494 59.4883 29.3778 59.4516 29.5062 59.47C29.7079 59.4883 29.8546 59.5616 29.9646 59.7084C30.0747 59.8551 30.1113 60.0384 30.093 60.2768V60.3869L28.9194 60.2768V60.3135C28.901 60.4969 28.9377 60.6619 29.0294 60.7903C29.1211 60.9187 29.2494 60.992 29.4145 61.0104C29.5062 61.0104 29.5979 61.0104 29.6712 60.9737C29.7446 60.937 29.8179 60.9003 29.8913 60.827L30.0013 60.9187C29.8546 61.1204 29.6529 61.2121 29.3961 61.1754ZM29.5062 59.635C29.3778 59.6167 29.2494 59.6533 29.1394 59.745C29.0294 59.8367 28.9744 59.9651 28.9377 60.1301L29.928 60.2218V60.2035C29.928 60.0384 29.9096 59.9101 29.8363 59.8C29.7629 59.7084 29.6529 59.6533 29.5062 59.635ZM32.9354 60.2585C32.9354 60.4602 32.8987 60.6436 32.8437 60.7903C32.7704 60.937 32.6787 61.0654 32.5503 61.1571C32.4219 61.2488 32.2752 61.2854 32.0918 61.2854C31.8351 61.2854 31.6151 61.1937 31.4684 61.0104C31.3033 60.827 31.23 60.5886 31.2116 60.2585V60.0384C31.2116 59.8367 31.2483 59.6533 31.3033 59.5066C31.3767 59.3416 31.4684 59.2316 31.5967 59.1399C31.7251 59.0482 31.8718 59.0115 32.0368 59.0115C32.2019 59.0115 32.3669 59.0482 32.4953 59.1215C32.6237 59.1949 32.7337 59.3232 32.807 59.47C32.8804 59.6167 32.9171 59.8 32.9354 59.9834V60.2585ZM32.752 60.0201C32.752 59.745 32.6787 59.5433 32.5686 59.3966C32.4586 59.2499 32.2752 59.1765 32.0735 59.1765C31.8718 59.1765 31.7067 59.2499 31.5784 59.4149C31.45 59.5616 31.395 59.7817 31.4133 60.0568V60.2952C31.4133 60.5519 31.4867 60.772 31.5967 60.9187C31.7067 61.0654 31.8901 61.1387 32.0918 61.1387C32.3119 61.1387 32.4586 61.0654 32.587 60.9003C32.697 60.7536 32.752 60.5336 32.752 60.2585V60.0201ZM34.109 59.7084H33.9807C33.8706 59.7084 33.779 59.745 33.7056 59.8184C33.6322 59.8917 33.5772 59.9834 33.5589 60.1118L33.6322 61.2304L33.4489 61.2488L33.3572 59.6167L33.5406 59.5983L33.5589 59.8551C33.6506 59.6533 33.7973 59.5433 33.999 59.5433C34.054 59.5433 34.0907 59.5433 34.1274 59.5616L34.109 59.7084ZM34.3841 60.3318C34.3658 60.0751 34.3841 59.8734 34.4941 59.7084C34.5858 59.5433 34.7325 59.4516 34.9343 59.4333C35.1543 59.4149 35.3377 59.4883 35.4661 59.6533L35.4477 59.4149L35.6128 59.3966L35.7778 60.992C35.7961 61.1937 35.7595 61.3771 35.6494 61.5055C35.5394 61.6339 35.3927 61.7255 35.191 61.7439C35.081 61.7622 34.9709 61.7439 34.8609 61.7072C34.7509 61.6705 34.6592 61.6155 34.6042 61.5238L34.6959 61.3955C34.8426 61.5422 35.0076 61.5972 35.1727 61.5788C35.3194 61.5605 35.4294 61.5055 35.5027 61.4138C35.5761 61.3221 35.6128 61.1937 35.5944 61.0287L35.5761 60.827C35.4844 60.992 35.3194 61.102 35.0993 61.1204C34.9159 61.1387 34.7509 61.0837 34.6225 60.937C34.4941 60.7903 34.4208 60.6069 34.3841 60.3502V60.3318ZM34.5675 60.3502C34.5858 60.5519 34.6408 60.7169 34.7509 60.827C34.8609 60.937 34.9709 60.992 35.1176 60.9737C35.3377 60.9553 35.4844 60.827 35.5577 60.6253L35.4844 59.8734C35.4294 59.7817 35.356 59.7083 35.2827 59.6533C35.191 59.5983 35.0993 59.5983 34.9893 59.5983C34.8426 59.6167 34.7325 59.69 34.6592 59.8184C34.5675 59.9467 34.5492 60.1118 34.5675 60.3502ZM37.3732 60.772C37.3549 60.7169 37.3182 60.6436 37.2999 60.5519C37.2449 60.6436 37.1898 60.7169 37.0982 60.7903C37.0065 60.8453 36.9148 60.882 36.8047 60.9003C36.658 60.9187 36.5113 60.9003 36.4013 60.827C36.2913 60.7536 36.2179 60.6619 36.1996 60.5152C36.1812 60.3502 36.2179 60.2218 36.328 60.1118C36.438 60.0018 36.6214 59.9284 36.8598 59.8734L37.1898 59.8184L37.1532 59.635C37.1348 59.525 37.0798 59.4333 37.0065 59.3783C36.9148 59.3232 36.8231 59.3049 36.6764 59.3232C36.548 59.3416 36.4563 59.3966 36.383 59.47C36.3096 59.5433 36.2913 59.635 36.2913 59.7267L36.1079 59.7634C36.0896 59.635 36.1262 59.5066 36.2363 59.3966C36.3463 59.2866 36.4747 59.2132 36.658 59.1765C36.8414 59.1399 36.9881 59.1582 37.1165 59.2316C37.2449 59.3049 37.3182 59.4149 37.3365 59.58L37.4649 60.3502C37.4833 60.5152 37.5199 60.6253 37.5749 60.6986V60.7169L37.3732 60.772ZM36.7864 60.7353C36.9148 60.7169 37.0065 60.6619 37.0982 60.5886C37.1898 60.5152 37.2449 60.4235 37.2632 60.3135L37.2082 59.9651L36.8964 60.0201C36.7131 60.0568 36.5847 60.1118 36.493 60.1851C36.4013 60.2585 36.3646 60.3685 36.383 60.4785C36.4013 60.5702 36.438 60.6436 36.5297 60.6803C36.5847 60.7536 36.6764 60.7536 36.7864 60.7353ZM37.8684 58.9932L37.9417 59.2682C37.9784 59.1582 38.0334 59.0665 38.1067 58.9932C38.1801 58.9198 38.2718 58.8648 38.3818 58.8465C38.5469 58.8098 38.6936 58.8281 38.8036 58.9015C38.9136 58.9748 38.987 59.1215 39.0237 59.3049L39.262 60.3502L39.0787 60.3869L38.8403 59.3416C38.8036 59.1949 38.7486 59.1032 38.6752 59.0482C38.6019 58.9932 38.4918 58.9748 38.3635 59.0115C38.2535 59.0298 38.1618 59.0849 38.0884 59.1765C38.0151 59.2682 37.9784 59.3783 37.96 59.5066L38.2168 60.6069L38.0334 60.6436L37.6666 59.0482L37.8684 58.9932ZM39.207 58.1863C39.1887 58.1496 39.207 58.1313 39.207 58.0946C39.207 58.0579 39.2437 58.0396 39.2804 58.0396C39.3171 58.0212 39.3537 58.0396 39.3721 58.0579C39.4088 58.0763 39.4271 58.0946 39.4271 58.1313C39.4454 58.1679 39.4271 58.1863 39.4088 58.223C39.3904 58.2596 39.3721 58.278 39.3354 58.278H39.2437C39.2254 58.2413 39.207 58.223 39.207 58.1863ZM39.9772 60.1668L39.7939 60.2218L39.3537 58.6447L39.5371 58.5897L39.9772 60.1668ZM40.5641 59.8367L41.5727 59.5066L41.6277 59.6533L40.399 60.0568L40.3623 59.9284L40.8941 58.333L39.9772 58.6264L39.9222 58.4797L41.0592 58.1129L41.0959 58.2413L40.5641 59.8367ZM42.9847 59.1399C42.948 59.1032 42.9113 59.0298 42.8747 58.9381C42.838 59.0298 42.8013 59.1215 42.7096 59.2132C42.6363 59.2866 42.5446 59.3416 42.4345 59.3966C42.2878 59.4516 42.1595 59.4516 42.0311 59.4149C41.9027 59.3599 41.8294 59.2866 41.7744 59.1582C41.7194 59.0115 41.7377 58.8648 41.8294 58.7364C41.9211 58.6081 42.0678 58.498 42.3062 58.4063L42.6179 58.278L42.5446 58.1129C42.5079 58.0029 42.4345 57.9296 42.3429 57.8929C42.2512 57.8562 42.1411 57.8562 42.0128 57.9112C41.9027 57.9479 41.811 58.0212 41.756 58.1129C41.701 58.2046 41.6827 58.2963 41.7194 58.3697L41.5543 58.443C41.4993 58.3147 41.5176 58.1863 41.6093 58.0579C41.701 57.9296 41.811 57.8195 41.9761 57.7645C42.1411 57.6912 42.3062 57.6912 42.4345 57.7278C42.5629 57.7645 42.6546 57.8745 42.728 58.0212L43.003 58.7548C43.058 58.9015 43.1131 59.0115 43.1864 59.0665V59.0849L42.9847 59.1399ZM42.4162 59.2132C42.5262 59.1765 42.6179 59.1032 42.6913 59.0115C42.7646 58.9198 42.8013 58.8281 42.8013 58.7181L42.6729 58.388L42.3612 58.498C42.1961 58.5714 42.0678 58.6447 41.9944 58.7364C41.9211 58.8281 41.9027 58.9381 41.9394 59.0298C41.9761 59.1215 42.0311 59.1765 42.1228 59.2132C42.2145 59.2682 42.3062 59.2682 42.4162 59.2132ZM43.0397 56.8659L43.2047 57.251L43.5165 57.1043L43.5715 57.2327L43.2598 57.3794L43.6999 58.388C43.7365 58.4797 43.7732 58.5347 43.8282 58.553C43.8833 58.5714 43.9383 58.5714 44.0116 58.553C44.0483 58.5347 44.085 58.5164 44.14 58.4797L44.2133 58.6081C44.1767 58.6447 44.1216 58.6814 44.0483 58.7181C43.9383 58.7731 43.8282 58.7731 43.7549 58.7364C43.6815 58.6998 43.6082 58.6081 43.5532 58.4797L43.1131 57.4711L42.838 57.5995L42.783 57.4711L43.058 57.3427L42.893 56.9576L43.0397 56.8659ZM43.6449 56.5359C43.6265 56.4992 43.6265 56.4808 43.6449 56.4442C43.6632 56.4075 43.6815 56.3892 43.7182 56.3708C43.7549 56.3525 43.7916 56.3525 43.8099 56.3708C43.8466 56.3892 43.8649 56.4075 43.8833 56.4258C43.9016 56.4442 43.9016 56.4808 43.8833 56.5175C43.8649 56.5542 43.8466 56.5725 43.8099 56.5909C43.7732 56.6092 43.7365 56.6092 43.7182 56.5909C43.6999 56.5725 43.6632 56.5542 43.6449 56.5359ZM44.7635 58.3513L44.5984 58.4247L43.8833 56.9393L44.0483 56.8659L44.7635 58.3513ZM44.7635 57.3977C44.6901 57.251 44.6535 57.1227 44.6351 56.976C44.6168 56.8293 44.6535 56.7009 44.7268 56.5909C44.8002 56.4808 44.8918 56.3892 45.0202 56.3158C45.2219 56.2058 45.4053 56.1874 45.5887 56.2608C45.7721 56.3341 45.9371 56.4808 46.0655 56.7009L46.0838 56.7376C46.1572 56.8843 46.1939 57.0127 46.2122 57.1594C46.2305 57.3061 46.1939 57.4344 46.1205 57.5445C46.0471 57.6545 45.9555 57.7462 45.8271 57.8195C45.6437 57.9296 45.442 57.9296 45.2586 57.8745C45.0752 57.8195 44.9102 57.6545 44.7818 57.4344L44.7635 57.3977ZM44.9469 57.3611C45.0386 57.5261 45.1669 57.6545 45.3136 57.7095C45.4603 57.7645 45.607 57.7645 45.7537 57.6912C45.9004 57.6178 45.9921 57.4894 46.0105 57.3427C46.0288 57.196 46.0105 57.0126 45.9004 56.8293L45.8821 56.7926C45.8271 56.6826 45.7537 56.5909 45.662 56.5175C45.5704 56.4442 45.4787 56.4075 45.3686 56.3892C45.2586 56.3708 45.1669 56.4075 45.0752 56.4442C44.9285 56.5175 44.8552 56.6459 44.8185 56.7926C44.7818 56.9576 44.8185 57.1227 44.9102 57.3061L44.9469 57.3611ZM46.1388 55.729L46.2855 55.9674C46.2855 55.8573 46.3039 55.7473 46.3589 55.6556C46.4139 55.5639 46.4873 55.4906 46.579 55.4356C46.7257 55.3439 46.8724 55.3072 47.0007 55.3622C47.1291 55.3989 47.2391 55.5089 47.3492 55.674L47.9176 56.5909L47.7709 56.6826L47.2024 55.7657C47.1291 55.6373 47.0374 55.5639 46.9457 55.5273C46.854 55.4906 46.7623 55.5273 46.634 55.5823C46.5423 55.6373 46.4689 55.729 46.4323 55.8207C46.3956 55.9307 46.3956 56.0407 46.4139 56.1691L47.0007 57.1227L46.854 57.2144L45.9921 55.8207L46.1388 55.729ZM48.9446 55.3622C48.8896 55.2889 48.8162 55.2522 48.7245 55.2522C48.6328 55.2522 48.5228 55.2705 48.3761 55.3439C48.2477 55.3989 48.1194 55.4356 48.046 55.4539C47.9727 55.4722 47.881 55.4539 47.8076 55.4356C47.7343 55.4172 47.6792 55.3622 47.6426 55.2889C47.5692 55.1788 47.5509 55.0688 47.5876 54.9404C47.6242 54.8121 47.7159 54.702 47.8626 54.592C48.0093 54.482 48.156 54.4453 48.3027 54.4453C48.4494 54.4636 48.5595 54.5187 48.6512 54.647L48.5045 54.7571C48.4494 54.6837 48.3761 54.6287 48.2661 54.6287C48.156 54.6287 48.0643 54.647 47.9543 54.7204C47.8626 54.7937 47.7893 54.8671 47.7709 54.9588C47.7343 55.0505 47.7526 55.1238 47.8076 55.1972C47.8626 55.2705 47.9176 55.3072 47.991 55.3072C48.0643 55.3072 48.1744 55.2889 48.3394 55.2155C48.4861 55.1605 48.6145 55.1238 48.7062 55.1055C48.7979 55.0871 48.8712 55.1055 48.9446 55.1238C49.0179 55.1422 49.0729 55.1972 49.1096 55.2705C49.183 55.3806 49.2013 55.5089 49.1646 55.6373C49.128 55.7657 49.0179 55.894 48.8712 55.9857C48.7062 56.0957 48.5595 56.1508 48.4128 56.1324C48.2661 56.1141 48.1377 56.0591 48.0643 55.949L48.211 55.839C48.2844 55.9307 48.3577 55.9674 48.4678 55.9674C48.5778 55.9674 48.6695 55.9307 48.7795 55.8573C48.8896 55.784 48.9446 55.7106 48.9812 55.6189C48.9996 55.5089 48.9812 55.4172 48.9446 55.3622ZM51.3469 54.5003L51.2368 54.592L49.5314 52.5932L49.6414 52.5015L51.3469 54.5003ZM53.034 51.5112C52.9606 51.4379 52.8873 51.4195 52.7956 51.4379C52.7039 51.4562 52.5939 51.5112 52.4288 51.6029C52.2638 51.6946 52.1171 51.7496 52.007 51.7863C51.7686 51.8413 51.5853 51.8046 51.4386 51.6579C51.3102 51.5296 51.2552 51.3829 51.2735 51.1995C51.2918 51.0161 51.3835 50.8327 51.5486 50.6677C51.6586 50.5576 51.7686 50.4843 51.897 50.4293C52.0254 50.3743 52.1537 50.3742 52.2638 50.3926C52.3921 50.4109 52.5022 50.4659 52.5939 50.5576L52.3371 50.8327C52.2454 50.7594 52.1721 50.7227 52.062 50.7227C51.952 50.7227 51.8787 50.7777 51.7686 50.8877C51.6769 50.9794 51.6403 51.0711 51.6219 51.1628C51.6036 51.2545 51.6403 51.3278 51.7136 51.4012C51.7686 51.4562 51.842 51.4745 51.9337 51.4562C52.0254 51.4379 52.1537 51.3829 52.3004 51.2912C52.4655 51.1995 52.5939 51.1445 52.7222 51.1078C52.8506 51.0711 52.9423 51.0711 53.0523 51.0894C53.144 51.1078 53.2357 51.1628 53.309 51.2361C53.4374 51.3645 53.4924 51.5112 53.4741 51.6946C53.4557 51.878 53.3641 52.043 53.199 52.2264C53.089 52.3364 52.9606 52.4281 52.8323 52.4831C52.7039 52.5382 52.5572 52.5565 52.4471 52.5381C52.3188 52.5198 52.2088 52.4648 52.0987 52.3731L52.3555 52.098C52.4471 52.1897 52.5388 52.2264 52.6489 52.2081C52.7589 52.1897 52.8689 52.1347 52.979 52.0247C53.0706 51.933 53.1257 51.8413 53.1257 51.7496C53.1257 51.6579 53.1073 51.5846 53.034 51.5112ZM54.4643 50.8144C54.3176 50.9977 54.1343 51.0894 53.9325 51.1078C53.7308 51.1261 53.5291 51.0528 53.3457 50.8877L53.309 50.851C53.1807 50.741 53.089 50.631 53.034 50.5026C52.979 50.3743 52.9606 50.2459 52.979 50.0992C52.9973 49.9708 53.0523 49.8424 53.144 49.7324C53.2907 49.5674 53.4557 49.4757 53.6391 49.4757C53.8225 49.4757 54.0242 49.549 54.2259 49.7324L54.336 49.8241L53.6391 50.6493C53.7492 50.7227 53.8592 50.7593 53.9692 50.7593C54.0792 50.741 54.1709 50.7043 54.2443 50.6126C54.3543 50.4843 54.391 50.3376 54.3543 50.1725L54.6294 50.1359C54.6661 50.2459 54.6661 50.3742 54.6294 50.4843C54.5927 50.5943 54.5377 50.7043 54.4643 50.8144ZM53.3457 49.9341C53.2724 50.0075 53.254 50.0992 53.2724 50.1909C53.2907 50.2826 53.3274 50.3743 53.4191 50.4659L53.8775 49.9341L53.8592 49.9158C53.7675 49.8424 53.6758 49.8058 53.5841 49.8058C53.4924 49.8058 53.4191 49.8608 53.3457 49.9341ZM54.556 48.5221C54.5194 48.5588 54.4827 48.5955 54.4643 48.6321C54.3543 48.7605 54.336 48.8889 54.4093 49.0172L55.3079 49.6957L55.0878 49.9892L53.7858 48.9989L54.0059 48.7238L54.1526 48.8338C54.0976 48.6688 54.1159 48.5404 54.2076 48.4121C54.2443 48.3754 54.2626 48.3387 54.2993 48.3204L54.556 48.5221ZM55.7297 48.302L54.9595 47.3485L55.1795 47.0367L56.2065 48.4304L56.0231 48.6871L54.336 48.2287L54.556 47.9169L55.7297 48.302ZM54.9228 46.6333C54.8678 46.5966 54.8494 46.5599 54.8311 46.5049C54.8128 46.4499 54.8311 46.3949 54.8678 46.3399C54.9045 46.2849 54.9411 46.2482 54.9961 46.2298C55.0512 46.2115 55.0878 46.2298 55.1429 46.2665C55.1979 46.3032 55.2162 46.3399 55.2345 46.3949C55.2529 46.4499 55.2345 46.5049 55.1979 46.5599C55.1612 46.6149 55.1245 46.6516 55.0695 46.67C55.0145 46.67 54.9778 46.6516 54.9228 46.6333ZM56.885 47.3851L56.6833 47.6969L55.2896 46.8167L55.4913 46.5049L56.885 47.3851ZM57.2334 46.2849C57.2701 46.2115 57.2884 46.1198 57.2701 46.0465C57.2517 45.9731 57.2151 45.8998 57.1417 45.8631L57.3067 45.5697C57.3984 45.6247 57.4535 45.698 57.5085 45.7897C57.5635 45.8814 57.5818 45.9914 57.5635 46.1015C57.5451 46.2115 57.5268 46.3215 57.4718 46.4316C57.3618 46.6333 57.1967 46.7616 57.0133 46.7983C56.83 46.835 56.6099 46.7983 56.3715 46.67L56.3348 46.6516C56.1148 46.5232 55.9681 46.3765 55.9131 46.1748C55.8397 45.9914 55.8764 45.7897 55.9864 45.588C56.0781 45.423 56.2065 45.3129 56.3715 45.2579C56.5365 45.2029 56.7016 45.2212 56.8483 45.3129L56.6833 45.6063C56.5916 45.5697 56.5182 45.5513 56.4265 45.5697C56.3348 45.588 56.2798 45.643 56.2248 45.7164C56.1698 45.8264 56.1514 45.9181 56.2065 46.0281C56.2431 46.1198 56.3532 46.2298 56.4999 46.3032L56.5549 46.3399C56.7016 46.4316 56.8483 46.4682 56.9583 46.4499C57.0867 46.4499 57.1784 46.3949 57.2334 46.2849ZM58.3153 44.8728C58.2053 45.0745 58.0586 45.2212 57.8569 45.2763C57.6552 45.3496 57.4535 45.3129 57.2334 45.2029L57.1967 45.1846C57.05 45.1112 56.94 45.0195 56.8483 44.9095C56.7566 44.7995 56.7016 44.6711 56.7016 44.5427C56.6833 44.4144 56.7199 44.286 56.7749 44.1576C56.8666 43.9559 57.0133 43.8275 57.1967 43.7909C57.3801 43.7359 57.5818 43.7725 57.8202 43.9009L57.9486 43.9743L57.4718 44.9462C57.6002 45.0012 57.7102 45.0012 57.8202 44.9645C57.9302 44.9278 58.0036 44.8545 58.0586 44.7445C58.132 44.5977 58.132 44.4327 58.0586 44.286L58.3153 44.1943C58.3704 44.3043 58.407 44.4144 58.407 44.5244C58.407 44.6344 58.3704 44.7445 58.3153 44.8728ZM57.0317 44.286C56.995 44.3777 56.9767 44.4694 57.0133 44.5611C57.05 44.6528 57.1234 44.7261 57.2334 44.7995L57.5451 44.176L57.5268 44.1576C57.4168 44.1026 57.3067 44.1026 57.2334 44.121C57.1417 44.1393 57.0867 44.1943 57.0317 44.286ZM58.7188 41.1135C58.9205 41.1869 59.0855 41.2969 59.2139 41.4253C59.3423 41.5536 59.4156 41.7003 59.4523 41.8654C59.489 42.0304 59.4706 42.1955 59.3973 42.3605C59.3423 42.5255 59.2322 42.6539 59.1039 42.7639C58.9755 42.874 58.8105 42.929 58.6454 42.929C58.462 42.9473 58.2787 42.9106 58.077 42.8373L57.9669 42.8006C57.7652 42.7273 57.6002 42.6172 57.4718 42.4889C57.3434 42.3605 57.2701 42.2138 57.2334 42.0487C57.1967 41.8837 57.2151 41.7187 57.2884 41.5536C57.3434 41.3886 57.4535 41.2419 57.5818 41.1502C57.7102 41.0585 57.8752 40.9851 58.0403 40.9851C58.2237 40.9668 58.407 41.0035 58.6088 41.0768L58.7188 41.1135ZM58.4804 41.4253C58.242 41.3336 58.0586 41.3152 57.9119 41.3519C57.7652 41.3886 57.6552 41.4986 57.5818 41.6453C57.5268 41.792 57.5451 41.9387 57.6185 42.0854C57.6919 42.2321 57.8569 42.3238 58.077 42.4155L58.2053 42.4522C58.4254 42.5439 58.6271 42.5622 58.7738 42.5255C58.9388 42.4889 59.0489 42.3788 59.1039 42.2321C59.1589 42.0671 59.1406 41.9204 59.0672 41.792C58.9755 41.6636 58.8105 41.5536 58.5904 41.4619L58.4804 41.4253ZM58.8288 39.8665C58.8105 39.9032 58.7921 39.9582 58.7738 40.0132C58.7188 40.1783 58.7555 40.3066 58.8655 40.3983L59.9474 40.7284L59.8374 41.0768L58.2603 40.5817L58.3704 40.2516L58.5537 40.3066C58.4437 40.1783 58.407 40.0316 58.462 39.8849C58.4804 39.8298 58.4987 39.7932 58.5171 39.7748L58.8288 39.8665ZM59.3423 39.8115C59.1039 39.7565 58.9205 39.6465 58.7921 39.4814C58.6821 39.3347 58.6454 39.1513 58.6821 38.9679C58.7371 38.7846 58.8288 38.6562 58.9755 38.5828L58.8105 38.5278L58.9022 38.1977L60.4426 38.6012C60.6443 38.6562 60.791 38.7662 60.8827 38.9313C60.9744 39.0963 60.9927 39.2797 60.9377 39.4998C60.901 39.6098 60.846 39.7198 60.7727 39.8298C60.6993 39.9215 60.6076 39.9949 60.5159 40.0316L60.3509 39.8115C60.5159 39.7381 60.6076 39.6098 60.6443 39.4631C60.681 39.353 60.6626 39.243 60.6259 39.1513C60.5709 39.0596 60.4976 39.0046 60.3692 38.9679L60.2592 38.9496C60.3509 39.078 60.3692 39.243 60.3325 39.4081C60.2775 39.5914 60.1675 39.7198 60.0025 39.8115C59.8374 39.8849 59.6174 39.8849 59.3423 39.8115ZM59.4706 39.4631C59.6357 39.4998 59.7641 39.4998 59.8741 39.4631C59.9841 39.4264 60.0575 39.3347 60.0758 39.2247C60.1125 39.078 60.0758 38.9496 59.9658 38.8579L59.2689 38.6745C59.1222 38.7112 59.0489 38.8029 59.0122 38.9496C58.9755 39.0596 59.0122 39.1697 59.0855 39.2614C59.1589 39.353 59.2873 39.4264 59.4706 39.4631ZM60.791 37.2075C60.7543 37.2258 60.6993 37.2258 60.6259 37.2258C60.7176 37.3725 60.7543 37.5192 60.7176 37.6843C60.681 37.8493 60.6076 37.9777 60.4976 38.051C60.3875 38.1427 60.2592 38.1611 60.1308 38.1427C59.9658 38.1061 59.8374 38.0144 59.7641 37.8677C59.6907 37.721 59.6907 37.5376 59.7274 37.2992L59.7641 37.0791L59.654 37.0608C59.5623 37.0424 59.5073 37.0608 59.434 37.0975C59.379 37.1341 59.3423 37.2075 59.3239 37.2992C59.3056 37.3909 59.3239 37.4459 59.3423 37.5192C59.379 37.5743 59.4156 37.6109 59.489 37.6293L59.4156 37.996C59.3239 37.9777 59.2506 37.941 59.1772 37.8677C59.1039 37.7943 59.0672 37.7026 59.0489 37.5926C59.0305 37.4826 59.0305 37.3725 59.0489 37.2442C59.0855 37.0608 59.1589 36.9141 59.2689 36.8224C59.379 36.7307 59.5257 36.694 59.709 36.7307L60.4426 36.8774C60.5893 36.9141 60.6993 36.9141 60.8093 36.8774H60.8277L60.791 37.2075ZM60.4609 37.5559C60.4792 37.4826 60.4609 37.4092 60.4426 37.3359C60.4242 37.2625 60.3876 37.2075 60.3325 37.1708L60.0208 37.1158L59.9841 37.3175C59.9658 37.4459 59.9658 37.5559 60.0025 37.6293C60.0391 37.7026 60.0941 37.7576 60.1858 37.776C60.2592 37.7943 60.3142 37.776 60.3692 37.7393C60.4059 37.6843 60.4426 37.6293 60.4609 37.5559ZM59.3423 35.8688L59.5257 35.8871C59.3973 35.7404 59.3423 35.5754 59.3606 35.392C59.3973 35.0436 59.6174 34.8969 60.0025 34.9519L61.0844 35.0986L61.0294 35.4654L59.9658 35.337C59.8557 35.3187 59.7824 35.337 59.7274 35.3737C59.6724 35.4104 59.6357 35.4837 59.6174 35.5754C59.599 35.7221 59.654 35.8505 59.7824 35.9238L60.9377 36.0705L60.8827 36.4373L59.2506 36.2356L59.3423 35.8688ZM59.0672 34.4751C59.0122 34.4751 58.9572 34.4568 58.9388 34.4018C58.9022 34.3651 58.8838 34.3101 58.9022 34.2367C58.9022 34.1634 58.9388 34.1267 58.9755 34.09C59.0122 34.0533 59.0672 34.035 59.1222 34.0533C59.1772 34.0533 59.2139 34.0717 59.2506 34.1267C59.2873 34.1634 59.3056 34.2184 59.2873 34.2917C59.2873 34.3651 59.2506 34.4018 59.2139 34.4384C59.1772 34.4751 59.1222 34.4751 59.0672 34.4751ZM61.1761 34.2551L61.1394 34.6218L59.5073 34.4934L59.544 34.1267L61.1761 34.2551ZM60.9194 33.3932L60.956 32.5129L61.2494 32.5313L61.1944 33.87L60.956 33.8516L59.8924 32.9714L59.8557 33.7966L59.5623 33.7783L59.6174 32.4946L59.8557 32.5129L60.9194 33.3932ZM61.2494 31.1742C61.2128 31.1926 61.1761 31.2109 61.1027 31.2109C61.2311 31.321 61.2861 31.4677 61.2861 31.6327C61.2861 31.7977 61.2494 31.9261 61.1578 32.0361C61.0661 32.1462 60.956 32.2012 60.8093 32.2012C60.6259 32.2012 60.4976 32.1462 60.4059 32.0178C60.3142 31.8894 60.2592 31.7061 60.2592 31.4677V31.2476H60.1492C60.0575 31.2476 60.0024 31.2659 59.9474 31.321C59.8924 31.376 59.8741 31.4493 59.8741 31.541C59.8741 31.6327 59.8924 31.6877 59.9474 31.7427C59.9841 31.7977 60.0391 31.8161 60.1125 31.8161V32.1828C60.0208 32.1828 59.9291 32.1645 59.8557 32.0912C59.7824 32.0361 59.709 31.9444 59.6724 31.8528C59.6173 31.7427 59.599 31.6327 59.599 31.5043C59.599 31.321 59.6357 31.1559 59.7274 31.0459C59.8191 30.9359 59.9658 30.8625 60.1308 30.8625L60.8643 30.8442C61.011 30.8442 61.1211 30.8258 61.2128 30.7708H61.2311L61.2494 31.1742ZM60.9927 31.596C60.9927 31.5227 60.9744 31.4493 60.9377 31.3943C60.901 31.3393 60.846 31.2843 60.791 31.2476H60.4792V31.4493C60.4792 31.5777 60.5159 31.6877 60.5526 31.7611C60.6076 31.8344 60.6626 31.8711 60.7543 31.8528C60.8277 31.8528 60.8827 31.8344 60.9194 31.7794C60.9744 31.7244 60.9927 31.6694 60.9927 31.596ZM59.1406 30.0923L59.544 30.074L59.5257 29.7806L59.8007 29.7622L59.8191 30.0556L60.736 30.0006C60.791 30.0006 60.846 29.9823 60.8643 29.9456C60.8827 29.9273 60.901 29.8722 60.901 29.8172C60.901 29.7806 60.8827 29.7255 60.8827 29.6889L61.1761 29.6705C61.2128 29.7439 61.2128 29.8356 61.2311 29.9089C61.2494 30.184 61.1027 30.349 60.791 30.3674L59.8557 30.4224L59.8741 30.6975L59.599 30.7158L59.5807 30.4407L59.1772 30.4591L59.1406 30.0923ZM59.0672 29.5422C59.0122 29.5422 58.9572 29.5422 58.9205 29.5055C58.8838 29.4688 58.8471 29.4321 58.8471 29.3588C58.8471 29.2854 58.8472 29.2304 58.8838 29.1937C58.9205 29.1571 58.9572 29.1387 59.0122 29.1204C59.0672 29.1204 59.1222 29.1204 59.1589 29.1571C59.1956 29.1937 59.2139 29.2304 59.2323 29.3038C59.2323 29.3771 59.2322 29.4321 59.1956 29.4688C59.1589 29.5055 59.1222 29.5238 59.0672 29.5422ZM61.1027 28.937L61.1394 29.3038L59.5073 29.4688L59.4706 29.102L61.1027 28.937ZM60.2408 28.6619C60.0758 28.6803 59.9291 28.6803 59.8007 28.6253C59.6724 28.5886 59.544 28.5152 59.4706 28.4052C59.379 28.2952 59.3239 28.1668 59.3056 28.0201C59.2689 27.8 59.3239 27.6167 59.434 27.4516C59.5623 27.2866 59.7274 27.1949 59.9658 27.1399L60.0575 27.1215C60.2225 27.1032 60.3692 27.1032 60.4976 27.1582C60.6259 27.1949 60.736 27.2682 60.8277 27.3783C60.9194 27.4883 60.9744 27.6167 60.9927 27.7634C61.0294 28.0018 60.9744 28.1851 60.846 28.3502C60.6993 28.5336 60.5159 28.6253 60.2408 28.6619ZM60.2042 28.2952C60.3692 28.2768 60.4976 28.2218 60.5893 28.1301C60.681 28.0384 60.6993 27.9467 60.681 27.8184C60.6626 27.69 60.6076 27.5983 60.4976 27.5433C60.3875 27.4883 60.2408 27.47 60.0575 27.5066C59.8924 27.525 59.7641 27.58 59.6907 27.6717C59.599 27.7634 59.5623 27.8551 59.5807 27.9834C59.599 28.1118 59.654 28.1851 59.7641 28.2402C59.8741 28.3135 60.0208 28.3318 60.2042 28.2952ZM59.0855 26.6447L59.2689 26.5897C59.1039 26.498 58.9939 26.3513 58.9572 26.1679C58.8838 25.8379 59.0489 25.6178 59.434 25.5444L60.4976 25.3244L60.5709 25.6912L59.5257 25.9112C59.4156 25.9296 59.3606 25.9662 59.3056 26.0212C59.2689 26.0763 59.2506 26.1496 59.2689 26.2596C59.3056 26.4063 59.3973 26.498 59.544 26.5347L60.681 26.2963L60.7543 26.6631L59.1406 26.9932L59.0855 26.6447ZM59.709 24.0957C59.654 24.1141 59.599 24.1508 59.5807 24.2058C59.5623 24.2608 59.5623 24.3708 59.5623 24.4808C59.5623 24.5909 59.5623 24.7192 59.544 24.8109C59.5073 25.0126 59.3973 25.141 59.2506 25.1777C59.1222 25.2144 58.9755 25.196 58.8655 25.1043C58.7371 25.0126 58.6638 24.8843 58.6088 24.7009C58.5537 24.5175 58.5537 24.3525 58.6271 24.2058C58.6821 24.0591 58.7921 23.9674 58.9388 23.9307L59.0305 24.2791C58.9572 24.2975 58.9205 24.3341 58.8838 24.4075C58.8472 24.4625 58.8471 24.5359 58.8655 24.6275C58.8838 24.7009 58.9205 24.7559 58.9755 24.8109C59.0305 24.8476 59.0855 24.8659 59.1406 24.8476C59.1956 24.8293 59.2323 24.7926 59.2506 24.7376C59.2689 24.6826 59.2689 24.5909 59.2689 24.4258C59.2689 24.2608 59.2689 24.1508 59.2873 24.0591C59.3056 23.9674 59.3423 23.894 59.3973 23.839C59.4523 23.784 59.5073 23.7473 59.599 23.729C59.7457 23.6923 59.8741 23.7106 60.0025 23.8207C60.1308 23.9307 60.2042 24.0591 60.2592 24.2424C60.2959 24.3708 60.2959 24.4992 60.2775 24.6092C60.2592 24.7192 60.2225 24.8293 60.1492 24.9026C60.0758 24.976 60.0025 25.031 59.9108 25.0677L59.8191 24.7192C59.9108 24.6826 59.9658 24.6459 59.9841 24.5725C60.0208 24.4992 60.0208 24.4258 59.9841 24.3158C59.9658 24.2241 59.9291 24.1508 59.8741 24.1141C59.8191 24.0957 59.7641 24.0774 59.709 24.0957ZM20.9056 25.3244H16.4128L15.3858 28.1118H14.5056L18.2649 18.2092H19.0535L22.8128 28.1118H21.9325L20.9056 25.3244ZM16.6695 24.6092H20.6489L18.6684 19.2178L16.6695 24.6092ZM25.1417 28.1118H24.2982V18.2092H25.1417V28.1118ZM34.7142 25.0126C34.6042 26.0579 34.2191 26.8465 33.5956 27.4149C32.9537 27.9651 32.1285 28.2402 31.0649 28.2402C30.3314 28.2402 29.6712 28.0568 29.1211 27.69C28.5526 27.3232 28.1125 26.8098 27.8191 26.1313C27.5257 25.4528 27.3606 24.6826 27.3423 23.8207V22.537C27.3423 21.6568 27.489 20.8682 27.8007 20.1897C28.1125 19.5112 28.5526 18.9794 29.1394 18.6126C29.7262 18.2459 30.3864 18.0625 31.1383 18.0625C32.2019 18.0625 33.0454 18.3559 33.6506 18.9244C34.2741 19.4929 34.6225 20.2814 34.7142 21.3083H33.8706C33.6689 19.6212 32.752 18.7777 31.1199 18.7777C30.2214 18.7777 29.5062 19.1078 28.9744 19.7863C28.4426 20.4648 28.1675 21.3817 28.1675 22.5737V23.784C28.1675 24.921 28.4242 25.8379 28.9377 26.5164C29.4512 27.1949 30.1663 27.5433 31.0466 27.5433C31.9268 27.5433 32.587 27.3416 33.0271 26.9198C33.4672 26.498 33.7423 25.8745 33.8523 25.031H34.7142V25.0126ZM37.4466 24.0774V28.1118H36.603V18.2092H39.9772C41.0042 18.2092 41.8294 18.4659 42.4162 18.9977C43.0214 19.5295 43.3148 20.2447 43.3148 21.1616C43.3148 22.0969 43.0214 22.8121 42.4529 23.3072C41.8844 23.8207 41.0408 24.0591 39.9589 24.0591H37.4466V24.0774ZM37.4466 23.3622H39.9772C40.7841 23.3622 41.4076 23.1605 41.8294 22.7754C42.2512 22.3903 42.4712 21.8585 42.4712 21.1616C42.4712 20.4831 42.2512 19.933 41.8294 19.5295C41.4076 19.1261 40.8024 18.9061 40.0139 18.9061H37.4282V23.3622H37.4466ZM49.458 25.3244H44.9652L43.9383 28.1118H43.058L46.8173 18.2092H47.6059L51.3652 28.1118H50.485L49.458 25.3244ZM45.2219 24.6092H49.2013L47.2208 19.2178L45.2219 24.6092ZM26.5721 41.7553C26.5721 41.2052 26.3704 40.7651 25.9853 40.4533C25.6002 40.1416 24.885 39.8298 23.8764 39.5364C22.8494 39.243 22.0976 38.9313 21.6391 38.6012C20.9606 38.1244 20.6305 37.4826 20.6305 36.7124C20.6305 35.9605 20.9423 35.337 21.5658 34.8602C22.1893 34.3834 22.9961 34.145 23.9497 34.145C24.6099 34.145 25.1967 34.2734 25.7102 34.5301C26.2237 34.7869 26.6271 35.1353 26.9205 35.5937C27.2139 36.0522 27.3423 36.5473 27.3423 37.1158H26.4987C26.4987 36.4373 26.2603 35.8871 25.8019 35.4837C25.3434 35.0803 24.7199 34.8602 23.9314 34.8602C23.1795 34.8602 22.5744 35.0253 22.1159 35.3737C21.6575 35.7038 21.4374 36.1622 21.4374 36.694C21.4374 37.2075 21.6391 37.6109 22.0426 37.9227C22.446 38.2344 23.0878 38.5278 23.9864 38.7662C24.8666 39.0046 25.5451 39.2614 26.0036 39.5181C26.462 39.7748 26.8105 40.0866 27.0305 40.4533C27.2689 40.8201 27.379 41.2419 27.379 41.737C27.379 42.5255 27.0672 43.149 26.4437 43.6075C25.8202 44.0843 24.995 44.3227 23.9681 44.3227C23.2712 44.3227 22.6294 44.1943 22.0426 43.9559C21.4557 43.6992 21.0156 43.3508 20.7222 42.9106C20.4288 42.4705 20.2638 41.9387 20.2638 41.3702H21.1073C21.1073 42.0671 21.3641 42.6172 21.8959 43.0207C22.4093 43.4241 23.1062 43.6258 23.9864 43.6258C24.7566 43.6258 25.3801 43.4608 25.8386 43.1124C26.3337 42.7823 26.5721 42.3238 26.5721 41.7553ZM36.4013 39.7748C36.4013 40.6917 36.2363 41.4803 35.9245 42.1771C35.6128 42.874 35.1543 43.4058 34.5675 43.7725C33.9807 44.1393 33.3022 44.3227 32.532 44.3227C31.3767 44.3227 30.4414 43.9009 29.7262 43.0757C29.011 42.2505 28.6626 41.1318 28.6626 39.7198V38.6929C28.6626 37.7943 28.8277 36.9874 29.1394 36.2906C29.4512 35.5937 29.9096 35.0619 30.4964 34.6768C31.0833 34.3101 31.7618 34.1083 32.5136 34.1083C33.2838 34.1083 33.944 34.2917 34.5308 34.6585C35.1176 35.0253 35.5578 35.5387 35.8878 36.2172C36.1996 36.8957 36.3646 37.6659 36.383 38.5462V39.7748H36.4013ZM35.5577 38.7112C35.5577 37.5192 35.2827 36.584 34.7509 35.9055C34.2191 35.227 33.4672 34.8969 32.532 34.8969C31.6151 34.8969 30.8815 35.2453 30.3314 35.9055C29.7812 36.584 29.5062 37.5376 29.5062 38.7479V39.7748C29.5062 40.9485 29.7812 41.8837 30.3314 42.5622C30.8815 43.2407 31.6151 43.5892 32.5503 43.5892C33.5039 43.5892 34.2374 43.2591 34.7692 42.5806C35.301 41.902 35.5577 40.9485 35.5577 39.7381V38.7112ZM45.387 41.1135C45.2769 42.1588 44.8918 42.9473 44.2684 43.5158C43.6265 44.0659 42.8013 44.341 41.7377 44.341C41.0042 44.341 40.344 44.1576 39.7939 43.7909C39.2254 43.4241 38.7853 42.9106 38.4918 42.2321C38.1984 41.5536 38.0334 40.7834 38.0151 39.9215V38.6379C38.0151 37.7576 38.1618 36.9691 38.4735 36.2906C38.7853 35.6121 39.2254 35.0803 39.8122 34.7135C40.399 34.3467 41.0592 34.1634 41.811 34.1634C42.8747 34.1634 43.7182 34.4568 44.3234 35.0253C44.9469 35.5937 45.2953 36.3823 45.387 37.4092H44.5434C44.3417 35.7221 43.4248 34.8785 41.7927 34.8785C40.8941 34.8785 40.179 35.2086 39.6471 35.8871C39.1153 36.5657 38.8403 37.4826 38.8403 38.6745V39.8849C38.8403 41.0218 39.097 41.9387 39.6105 42.6172C40.1239 43.2957 40.8391 43.6442 41.7194 43.6442C42.5996 43.6442 43.2598 43.4424 43.6999 43.0207C44.14 42.5989 44.4151 41.9754 44.5251 41.1318H45.387V41.1135Z" fill="white"/>
<path d="M13.8086 31.3223H51.5668" stroke="white" stroke-width="0.9316" stroke-miterlimit="10" stroke-linecap="round" stroke-linejoin="round"/>
<path d="M20.1903 49.4204C20.172 49.3837 20.1537 49.3104 20.1353 49.2187C19.9886 49.3837 19.8053 49.4571 19.5852 49.4571C19.4018 49.4571 19.2368 49.4021 19.1267 49.2921C18.9984 49.182 18.9434 49.0537 18.9434 48.8886C18.9434 48.6869 19.0167 48.5402 19.1634 48.4302C19.3101 48.3201 19.5302 48.2651 19.8052 48.2651H20.117V48.1184C20.117 48.0084 20.0803 47.9167 20.007 47.8433C19.9336 47.77 19.8419 47.7333 19.7136 47.7333C19.6035 47.7333 19.4935 47.77 19.4201 47.825C19.3468 47.88 19.3101 47.9534 19.3101 48.0451H18.98C18.98 47.9534 19.0167 47.8617 19.0901 47.77C19.1634 47.6783 19.2551 47.6049 19.3651 47.5499C19.4752 47.4949 19.6035 47.4766 19.7502 47.4766C19.9703 47.4766 20.1353 47.5316 20.2637 47.6416C20.3921 47.7516 20.4471 47.8984 20.4654 48.1001V48.9803C20.4654 49.1637 20.4838 49.2921 20.5388 49.4021V49.4388H20.1903V49.4204ZM19.6585 49.182C19.7686 49.182 19.8603 49.1637 19.952 49.1087C20.0436 49.0537 20.117 48.9803 20.1537 48.907V48.5219H19.8969C19.4935 48.5219 19.2918 48.6319 19.2918 48.8703C19.2918 48.9803 19.3285 49.0537 19.4018 49.1087C19.4752 49.1637 19.5485 49.182 19.6585 49.182ZM20.9055 46.9998C20.9055 46.9448 20.9239 46.9081 20.9606 46.8714C20.9972 46.8347 21.0339 46.8164 21.1073 46.8164C21.1806 46.8164 21.2173 46.8347 21.254 46.8714C21.2906 46.9081 21.309 46.9448 21.309 46.9998C21.309 47.0548 21.2906 47.0915 21.254 47.1282C21.2173 47.1648 21.1806 47.1832 21.1073 47.1832C21.0339 47.1832 20.9972 47.1648 20.9606 47.1282C20.9055 47.1098 20.9055 47.0548 20.9055 46.9998ZM21.254 49.4204H20.9239V47.5133H21.254V49.4204ZM22.4459 49.2004C22.556 49.2004 22.666 49.1637 22.7577 49.0903C22.8494 49.017 22.8861 48.9253 22.9044 48.8336H23.2161C23.2161 48.9436 23.1795 49.0537 23.1061 49.1453C23.0328 49.237 22.9411 49.3287 22.831 49.3837C22.721 49.4388 22.5926 49.4754 22.4643 49.4754C22.2075 49.4754 22.0058 49.3837 21.8408 49.2187C21.6941 49.0537 21.6024 48.8153 21.6024 48.5035V48.4485C21.6024 48.2651 21.6391 48.1001 21.7124 47.9534C21.7858 47.8067 21.8775 47.6966 22.0058 47.6233C22.1342 47.5499 22.2809 47.4949 22.4643 47.4949C22.6843 47.4949 22.8494 47.5683 22.9961 47.6783C23.1428 47.8067 23.2161 47.9717 23.2161 48.1734H22.9044C22.8861 48.0451 22.8494 47.9534 22.7577 47.8617C22.666 47.7883 22.5743 47.7517 22.4459 47.7517C22.2809 47.7517 22.1525 47.8067 22.0608 47.935C21.9691 48.0634 21.9325 48.2284 21.9325 48.4485V48.5035C21.9325 48.7236 21.9691 48.8886 22.0608 49.017C22.1525 49.127 22.2809 49.2004 22.4459 49.2004ZM25.105 48.4852C25.105 48.7786 25.0316 49.017 24.9032 49.182C24.7749 49.3654 24.5915 49.4571 24.3714 49.4571C24.133 49.4571 23.9497 49.3837 23.8213 49.237V50.1539H23.4912V47.5133H23.7846L23.803 47.7333C23.9313 47.5683 24.1147 47.4949 24.3531 47.4949C24.5915 47.4949 24.7565 47.5866 24.9032 47.7517C25.0499 47.9167 25.105 48.1734 25.105 48.4668V48.4852ZM24.7749 48.4485C24.7749 48.2284 24.7382 48.0634 24.6282 47.935C24.5365 47.8067 24.4081 47.7517 24.2431 47.7517C24.0414 47.7517 23.8946 47.8433 23.803 48.0084V48.9253C23.8946 49.1087 24.0414 49.182 24.2431 49.182C24.4081 49.182 24.5181 49.127 24.6098 48.9986C24.7015 48.8703 24.7749 48.7052 24.7749 48.4485ZM26.6087 49.4204C26.5904 49.3837 26.572 49.3104 26.5537 49.2187C26.407 49.3837 26.2236 49.4571 26.0035 49.4571C25.8202 49.4571 25.6551 49.4021 25.5451 49.2921C25.4167 49.182 25.3617 49.0537 25.3617 48.8886C25.3617 48.6869 25.435 48.5402 25.5818 48.4302C25.7285 48.3201 25.9485 48.2651 26.2236 48.2651H26.5353V48.1184C26.5353 48.0084 26.4987 47.9167 26.4253 47.8433C26.352 47.77 26.2603 47.7333 26.1319 47.7333C26.0219 47.7333 25.9118 47.77 25.8385 47.825C25.7651 47.88 25.7285 47.9534 25.7285 48.0451H25.3984C25.3984 47.9534 25.4351 47.8617 25.5084 47.77C25.5818 47.6783 25.6734 47.6049 25.7835 47.5499C25.8935 47.4949 26.0219 47.4766 26.1686 47.4766C26.3886 47.4766 26.5537 47.5316 26.682 47.6416C26.8104 47.7516 26.8654 47.8984 26.8838 48.1001V48.9803C26.8838 49.1637 26.9021 49.2921 26.9571 49.4021V49.4388H26.6087V49.4204ZM26.0585 49.182C26.1686 49.182 26.2603 49.1637 26.352 49.1087C26.4436 49.0537 26.517 48.9803 26.5537 48.907V48.5219H26.2969C25.8935 48.5219 25.6918 48.6319 25.6918 48.8703C25.6918 48.9803 25.7285 49.0537 25.8018 49.1087C25.8752 49.1637 25.9485 49.182 26.0585 49.182ZM27.3055 49.2554C27.3055 49.2004 27.3239 49.1453 27.3606 49.1087C27.3972 49.072 27.4522 49.0537 27.5073 49.0537C27.5623 49.0537 27.6173 49.072 27.654 49.1087C27.6906 49.1453 27.709 49.2004 27.709 49.2554C27.709 49.3104 27.6906 49.3471 27.654 49.3837C27.6173 49.4204 27.5623 49.4388 27.5073 49.4388C27.4522 49.4388 27.3972 49.4204 27.3606 49.3837C27.3239 49.3471 27.3055 49.3104 27.3055 49.2554ZM28.0757 48.4485C28.0757 48.2651 28.1124 48.1001 28.1858 47.935C28.2591 47.7883 28.3691 47.6783 28.4975 47.5866C28.6259 47.5133 28.7726 47.4582 28.956 47.4582C29.2127 47.4582 29.4328 47.5499 29.5795 47.7333C29.7445 47.9167 29.8179 48.1551 29.8179 48.4485V48.4668C29.8179 48.6502 29.7812 48.8153 29.7078 48.962C29.6345 49.1087 29.5428 49.2187 29.3961 49.3104C29.2494 49.4021 29.1027 49.4388 28.9376 49.4388C28.6809 49.4388 28.4608 49.3471 28.3141 49.1637C28.1491 48.9803 28.0757 48.7419 28.0757 48.4485ZM28.4058 48.4852C28.4058 48.7052 28.4608 48.8703 28.5525 48.9986C28.6442 49.127 28.7909 49.182 28.956 49.182C29.121 49.182 29.2494 49.1087 29.3594 48.9803C29.4511 48.8519 29.5061 48.6686 29.5061 48.4302C29.5061 48.2284 29.4511 48.0451 29.3594 47.9167C29.2677 47.7883 29.121 47.715 28.956 47.715C28.7909 47.715 28.6626 47.7883 28.5709 47.8984C28.4792 48.0084 28.4058 48.2468 28.4058 48.4852ZM31.0648 47.8067C31.0098 47.8067 30.9548 47.7883 30.8998 47.7883C30.6797 47.7883 30.533 47.88 30.4597 48.0634V49.4204H30.1296V47.5133H30.4414V47.7333C30.5514 47.5683 30.6981 47.4766 30.8998 47.4766C30.9548 47.4766 31.0098 47.4766 31.0465 47.4949V47.8067H31.0648ZM31.1932 48.4485C31.1932 48.1551 31.2666 47.9167 31.3949 47.7333C31.5416 47.5499 31.7067 47.4766 31.9451 47.4766C32.1835 47.4766 32.3669 47.5499 32.4952 47.715L32.5136 47.4949H32.807V49.3654C32.807 49.6038 32.7336 49.8055 32.5869 49.9522C32.4402 50.0989 32.2385 50.1723 32.0001 50.1723C31.8534 50.1723 31.725 50.1356 31.5967 50.0806C31.4683 50.0256 31.3583 49.9339 31.3032 49.8422L31.4683 49.6405C31.615 49.8055 31.78 49.8972 31.9818 49.8972C32.1468 49.8972 32.2568 49.8605 32.3485 49.7688C32.4402 49.6772 32.4769 49.5488 32.4769 49.3837V49.2187C32.3485 49.3654 32.1651 49.4388 31.9451 49.4388C31.725 49.4388 31.5416 49.3471 31.3949 49.1637C31.2666 49.017 31.1932 48.7603 31.1932 48.4485ZM31.5233 48.4852C31.5233 48.7052 31.56 48.8703 31.6517 48.9986C31.7434 49.127 31.8717 49.182 32.0184 49.182C32.2202 49.182 32.3669 49.0903 32.4769 48.907V48.0267C32.3852 47.8433 32.2202 47.7517 32.0184 47.7517C31.8534 47.7517 31.7434 47.8067 31.6517 47.935C31.56 48.0634 31.5233 48.2468 31.5233 48.4852ZM33.2654 49.6405H32.9903L34.0723 46.8531H34.3474L33.2654 49.6405ZM35.7227 48.9253C35.7227 48.8336 35.6861 48.7603 35.631 48.7236C35.5577 48.6686 35.4477 48.6319 35.2826 48.5952C35.1176 48.5585 34.9892 48.5219 34.8975 48.4668C34.8058 48.4118 34.7325 48.3568 34.6775 48.2835C34.6224 48.2101 34.6041 48.1368 34.6041 48.0451C34.6041 47.88 34.6775 47.7516 34.8058 47.6416C34.9342 47.5316 35.0992 47.4766 35.3193 47.4766C35.5393 47.4766 35.7044 47.5316 35.8511 47.6416C35.9795 47.7516 36.0528 47.8984 36.0528 48.0634H35.7227C35.7227 47.9717 35.6861 47.8984 35.6127 47.825C35.5393 47.7516 35.4477 47.7333 35.3193 47.7333C35.2093 47.7333 35.0992 47.7517 35.0442 47.8067C34.9709 47.8617 34.9525 47.935 34.9525 48.0084C34.9525 48.0817 34.9892 48.1551 35.0442 48.1918C35.0992 48.2284 35.2276 48.2651 35.3743 48.3018C35.5393 48.3385 35.6677 48.3751 35.7777 48.4302C35.8878 48.4852 35.9611 48.5402 35.9978 48.6135C36.0528 48.6869 36.0712 48.7786 36.0712 48.8703C36.0712 49.0353 35.9978 49.182 35.8694 49.2737C35.7411 49.3837 35.5577 49.4204 35.3376 49.4204C35.1909 49.4204 35.0442 49.4021 34.9342 49.3471C34.8242 49.2921 34.7325 49.2187 34.6591 49.127C34.5858 49.0353 34.5674 48.9253 34.5674 48.8153H34.8975C34.8975 48.9253 34.9525 49.017 35.0259 49.072C35.0992 49.127 35.2093 49.1637 35.356 49.1637C35.4843 49.1637 35.576 49.1454 35.6494 49.0903C35.6861 49.072 35.7227 48.9986 35.7227 48.9253ZM36.2912 48.4485C36.2912 48.2651 36.3279 48.1001 36.4012 47.935C36.4746 47.7883 36.5846 47.6783 36.713 47.5866C36.8414 47.5133 36.9881 47.4582 37.1714 47.4582C37.4282 47.4582 37.6482 47.5499 37.7949 47.7333C37.96 47.9167 38.0333 48.1551 38.0333 48.4485V48.4668C38.0333 48.6502 37.9967 48.8153 37.9233 48.962C37.85 49.1087 37.7583 49.2187 37.6116 49.3104C37.4649 49.4021 37.3181 49.4388 37.1531 49.4388C36.8964 49.4388 36.6763 49.3471 36.5296 49.1637C36.3646 48.9803 36.2912 48.7419 36.2912 48.4485ZM36.6213 48.4852C36.6213 48.7052 36.6763 48.8703 36.768 48.9986C36.8597 49.127 37.0064 49.182 37.1714 49.182C37.3365 49.182 37.4648 49.1087 37.5749 48.9803C37.6666 48.8519 37.7216 48.6686 37.7216 48.4302C37.7216 48.2284 37.6666 48.0451 37.5749 47.9167C37.4832 47.7883 37.3365 47.715 37.1714 47.715C37.0064 47.715 36.878 47.7883 36.7863 47.8984C36.6946 48.0084 36.6213 48.2468 36.6213 48.4852ZM39.1153 49.2004C39.2253 49.2004 39.3353 49.1637 39.427 49.0903C39.5187 49.017 39.5554 48.9253 39.5737 48.8336H39.8855C39.8855 48.9436 39.8488 49.0537 39.7755 49.1453C39.7021 49.237 39.6104 49.3287 39.5004 49.3837C39.3903 49.4388 39.262 49.4754 39.1336 49.4754C38.8769 49.4754 38.6752 49.3837 38.5101 49.2187C38.3634 49.0537 38.2717 48.8153 38.2717 48.5035V48.4485C38.2717 48.2651 38.3084 48.1001 38.3818 47.9534C38.4551 47.8067 38.5468 47.6966 38.6752 47.6233C38.8035 47.5499 38.9502 47.4949 39.1336 47.4949C39.3537 47.4949 39.5187 47.5683 39.6654 47.6783C39.8121 47.8067 39.8855 47.9717 39.8855 48.1734H39.5737C39.5554 48.0451 39.5187 47.9534 39.427 47.8617C39.3353 47.7883 39.2436 47.7517 39.1153 47.7517C38.9502 47.7517 38.8219 47.8067 38.7302 47.935C38.6385 48.0634 38.6018 48.2284 38.6018 48.4485V48.5035C38.6018 48.7236 38.6385 48.8886 38.7302 49.017C38.8219 49.127 38.9502 49.2004 39.1153 49.2004ZM41.4992 48.5585H41.8477V48.8336H41.4992V49.4388H41.1691V48.8336H39.9955V48.6502L41.1508 46.8714H41.4992V48.5585ZM40.3806 48.5585H41.1875V47.2932L41.1508 47.3665L40.3806 48.5585ZM43.2047 48.9253C43.2047 48.8336 43.168 48.7603 43.113 48.7236C43.0396 48.6686 42.9296 48.6319 42.7646 48.5952C42.5995 48.5585 42.4712 48.5219 42.3795 48.4668C42.2878 48.4118 42.2144 48.3568 42.1594 48.2835C42.1044 48.2101 42.0861 48.1368 42.0861 48.0451C42.0861 47.88 42.1594 47.7516 42.2878 47.6416C42.4161 47.5316 42.5812 47.4766 42.8012 47.4766C43.0213 47.4766 43.1863 47.5316 43.333 47.6416C43.4614 47.7516 43.5348 47.8984 43.5348 48.0634H43.2047C43.2047 47.9717 43.168 47.8984 43.0946 47.825C43.0213 47.7516 42.9296 47.7333 42.8012 47.7333C42.6912 47.7333 42.5812 47.7517 42.5262 47.8067C42.4528 47.8617 42.4345 47.935 42.4345 48.0084C42.4345 48.0817 42.4712 48.1551 42.5262 48.1918C42.5812 48.2284 42.7095 48.2651 42.8563 48.3018C43.0213 48.3385 43.1497 48.3751 43.2597 48.4302C43.3697 48.4852 43.4431 48.5402 43.4798 48.6135C43.5348 48.6869 43.5531 48.7786 43.5531 48.8703C43.5531 49.0353 43.4797 49.182 43.3514 49.2737C43.223 49.3837 43.0396 49.4204 42.8196 49.4204C42.6729 49.4204 42.5262 49.4021 42.4161 49.3471C42.3061 49.2921 42.2144 49.2187 42.1411 49.127C42.0677 49.0353 42.0494 48.9253 42.0494 48.8153H42.3795C42.3795 48.9253 42.4345 49.017 42.5078 49.072C42.5812 49.127 42.6912 49.1637 42.8379 49.1637C42.9663 49.1637 43.058 49.1454 43.1313 49.0903C43.168 49.072 43.2047 48.9986 43.2047 48.9253ZM43.7915 48.4485C43.7915 48.2651 43.8282 48.1001 43.9015 47.935C43.9749 47.7883 44.0849 47.6783 44.2133 47.5866C44.3416 47.5133 44.4883 47.4582 44.6717 47.4582C44.9285 47.4582 45.1485 47.5499 45.2952 47.7333C45.4603 47.9167 45.5336 48.1551 45.5336 48.4485V48.4668C45.5336 48.6502 45.4969 48.8153 45.4236 48.962C45.3502 49.1087 45.2585 49.2187 45.1118 49.3104C44.9651 49.4021 44.8184 49.4388 44.6534 49.4388C44.3967 49.4388 44.1766 49.3471 44.0299 49.1637C43.8649 48.9803 43.7915 48.7419 43.7915 48.4485ZM44.1216 48.4852C44.1216 48.7052 44.1766 48.8703 44.2683 48.9986C44.36 49.127 44.5067 49.182 44.6717 49.182C44.8368 49.182 44.9651 49.1087 45.0752 48.9803C45.1669 48.8519 45.2219 48.6686 45.2219 48.4302C45.2219 48.2284 45.1669 48.0451 45.0752 47.9167C44.9835 47.7883 44.8368 47.715 44.6717 47.715C44.5067 47.715 44.3783 47.7883 44.2866 47.8984C44.1949 48.0084 44.1216 48.2468 44.1216 48.4852Z" fill="white"/>
<path d="M59.2136 57.2156V57.4357H58.7918V58.5543H58.5351V57.4357H58.1133V57.2156H59.2136ZM60.6623 58.5543L60.6073 57.7657C60.6073 57.6557 60.6073 57.5274 60.5889 57.399H60.5706C60.5339 57.509 60.4972 57.6741 60.4606 57.8024L60.2222 58.5359H59.9654L59.727 57.7657C59.7087 57.6557 59.672 57.509 59.6353 57.3806H59.617C59.617 57.509 59.617 57.6374 59.5987 57.7474L59.5437 58.5359H59.2869L59.3786 57.1973H59.782L60.0204 57.8574C60.0571 57.9675 60.0755 58.0592 60.1121 58.1875C60.1488 58.0592 60.1671 57.9491 60.2038 57.8574L60.4422 57.1973H60.8273L60.9373 58.5359H60.6623V58.5543Z" fill="#101323"/>
</g>
<defs>
<linearGradient id="paint0_linear_1195_7764" x1="0.115303" y1="32.0114" x2="63.8853" y2="32.0114" gradientUnits="userSpaceOnUse">
<stop stop-color="#101323"/>
<stop offset="0.695" stop-color="#363F72"/>
<stop offset="1" stop-color="#3E4784"/>
</linearGradient>
<clipPath id="clip0_1195_7764">
<rect width="64" height="64" fill="white"/>
</clipPath>
</defs>
</svg>
