<svg width="32" height="33" viewBox="0 0 32 33" fill="none" xmlns="http://www.w3.org/2000/svg">
<path d="M31.836 5.39366C31.8146 5.34566 31.7826 5.30299 31.7453 5.26566C31.7453 5.26033 31.7453 5.25499 31.7346 5.24966H31.7293C31.6226 5.14833 31.4733 5.08433 31.292 5.10566L7.5533 8.08166C7.1213 8.135 6.93463 8.65766 7.22796 8.97233L12.7853 14.9243L24.5933 9.02033C24.732 8.951 24.844 9.14833 24.716 9.23366L13.7933 16.727L16.0546 24.551C16.1773 24.967 16.7213 25.0737 16.988 24.7323L31.708 5.86299C31.82 5.71899 31.8413 5.55899 31.804 5.40966L31.836 5.39366Z" fill="#93C5FD"/>
<path d="M1.53214 24.1729C1.26014 24.1729 0.998805 24.0342 0.844138 23.7835C0.614805 23.4049 0.737471 22.9142 1.11614 22.6849L9.15347 17.8422C9.53214 17.6129 10.0228 17.7355 10.2521 18.1142C10.4815 18.4929 10.3588 18.9835 9.98014 19.2129L1.9428 24.0609C1.8148 24.1409 1.6708 24.1782 1.53214 24.1782V24.1729Z" fill="#6DCEFF"/>
<path d="M0.966708 18.253C0.694708 18.253 0.433375 18.1143 0.278708 17.8637C0.0493749 17.485 0.172042 16.9943 0.550708 16.765L5.13204 14.0023C5.51071 13.773 6.00137 13.8957 6.23071 14.2743C6.46004 14.653 6.33737 15.1437 5.95871 15.373L1.37737 18.1357C1.24937 18.2157 1.10537 18.253 0.966708 18.253Z" fill="#6DCEFF"/>
<path d="M6.50772 27.4425C6.23572 27.4425 5.97439 27.3038 5.81972 27.0531C5.59039 26.6745 5.71306 26.1838 6.09172 25.9545L10.6731 23.1918C11.0517 22.9625 11.5424 23.0851 11.7717 23.4638C12.0011 23.8425 11.8784 24.3331 11.4997 24.5625L6.91839 27.3251C6.79039 27.4051 6.64639 27.4425 6.50772 27.4425Z" fill="#2563EB"/>
</svg>
