<svg width="32" height="33" viewBox="0 0 32 33" fill="none" xmlns="http://www.w3.org/2000/svg">
<path d="M21.4797 24.5618C21.8317 25.9912 23.1223 27.0472 24.6583 27.0472C26.4663 27.0472 27.9383 25.5805 27.9383 23.7672C27.9383 21.9538 26.4717 20.4872 24.6583 20.4872C23.1223 20.4872 21.837 21.5485 21.4797 22.9725C21.4477 22.9725 21.4157 22.9618 21.3783 22.9618H12.8077C12.365 22.9618 12.0077 23.3192 12.0077 23.7618C12.0077 26.4818 9.79435 28.7005 7.07435 28.7005C4.35435 28.7005 2.14102 26.4872 2.14102 23.7618C2.14102 21.0365 4.35435 18.8285 7.07435 18.8285C7.51701 18.8285 7.87435 18.4712 7.87435 18.0285C7.87435 17.5858 7.51701 17.2285 7.07435 17.2285C3.46902 17.2285 0.541016 20.1618 0.541016 23.7618C0.541016 27.3618 3.47435 30.3005 7.07435 30.3005C10.4077 30.3005 13.165 27.7938 13.5597 24.5618H21.3783C21.4103 24.5618 21.4477 24.5565 21.4797 24.5512V24.5618Z" fill="#93C5FD"/>
<path d="M8.10932 20.6203C6.69599 20.215 5.13332 20.807 4.37066 22.1403C3.46932 23.7083 4.01332 25.7137 5.58666 26.615C7.15466 27.5163 9.15999 26.9723 10.0613 25.399C10.824 24.0657 10.5467 22.4177 9.47999 21.4043C9.50132 21.3777 9.52266 21.3563 9.53866 21.3243L13.8 13.8897C14.0187 13.5057 13.8853 13.015 13.5013 12.7963C11.1387 11.4417 10.3227 8.41768 11.672 6.06035C13.0267 3.69768 16.0453 2.88168 18.408 4.23101C19.5493 4.88701 20.3707 5.94835 20.7173 7.22301C21.064 8.49768 20.8933 9.82568 20.2373 10.9723C20.0187 11.3563 20.152 11.847 20.536 12.0657C20.92 12.2843 21.4107 12.151 21.6293 11.767C22.4987 10.2523 22.7227 8.49235 22.2693 6.80701C21.8107 5.12168 20.728 3.71368 19.2133 2.84968C16.0827 1.05235 12.0827 2.14035 10.2907 5.26568C9.42132 6.78035 9.19732 8.54035 9.65066 10.2257C10.04 11.6497 10.872 12.8763 12.04 13.7457L8.15199 20.5297C8.13599 20.5617 8.12532 20.5883 8.10932 20.6203Z" fill="#93C5FD"/>
<path d="M30.5623 20.7265C28.8823 17.8518 25.3197 16.7372 22.3383 18.0225L18.3917 11.2705C18.3757 11.2385 18.3543 11.2172 18.333 11.1905C19.389 10.1665 19.6503 8.51851 18.877 7.19051C17.965 5.62784 15.9543 5.09984 14.3917 6.01717C12.829 6.92917 12.301 8.93984 13.2183 10.5025C13.997 11.8305 15.5597 12.4065 16.9677 11.9905C16.9783 12.0225 16.9943 12.0545 17.0103 12.0812L21.3357 19.4785C21.4423 19.6598 21.6183 19.7932 21.8263 19.8465C22.029 19.8998 22.2477 19.8678 22.4343 19.7612C24.7863 18.3852 27.8103 19.1798 29.1863 21.5318C30.5623 23.8838 29.7677 26.9078 27.4157 28.2838C26.2797 28.9505 24.9517 29.1318 23.6717 28.7958C22.397 28.4598 21.3303 27.6492 20.6637 26.5132C20.4397 26.1292 19.949 26.0012 19.5703 26.2252C19.1863 26.4492 19.0583 26.9398 19.2823 27.3185C20.1623 28.8278 21.581 29.8998 23.2663 30.3425C23.821 30.4865 24.3757 30.5612 24.9357 30.5612C26.0823 30.5612 27.2077 30.2572 28.2263 29.6652C31.3357 27.8465 32.3863 23.8358 30.5677 20.7212L30.5623 20.7265Z" fill="#2563EB"/>
</svg>
