<svg width="24" height="25" viewBox="0 0 24 25" fill="none" xmlns="http://www.w3.org/2000/svg">
<path d="M23.4986 6.49485C23.2226 5.46219 22.4094 4.64905 21.3768 4.37305C19.505 3.87149 12 3.87149 12 3.87149C12 3.87149 4.49498 3.87149 2.62317 4.37305C1.5907 4.64905 0.777375 5.46219 0.501422 6.49485C0 8.36647 0 12.2716 0 12.2716C0 12.2716 0 16.1767 0.501422 18.0481C0.777375 19.0808 1.5907 19.8942 2.62317 20.1701C4.49498 20.6715 12 20.6715 12 20.6715C12 20.6715 19.505 20.6715 21.3768 20.1701C22.4094 19.8942 23.2226 19.0808 23.4986 18.0481C24 16.1767 24 12.2716 24 12.2716C24 12.2716 24 8.36647 23.4986 6.49485ZM9.59986 15.8717V8.67154L15.8351 12.2716L9.59986 15.8717Z" fill="#B3B8D8"></path>
</svg>